<?xml version="1.0" encoding="utf-8"?>
<!-- Generator: Adobe Illustrator 16.0.3, SVG Export Plug-In . SVG Version: 6.00 Build 0)  -->
<!DOCTYPE svg PUBLIC "-//W3C//DTD SVG 1.1//EN" "http://www.w3.org/Graphics/SVG/1.1/DTD/svg11.dtd">
<svg version="1.1" id="Capa_1" xmlns="http://www.w3.org/2000/svg" xmlns:xlink="http://www.w3.org/1999/xlink" x="0px" y="0px"
	 width="56.69px" height="56.69px" viewBox="0 0 56.69 56.69" enable-background="new 0 0 56.69 56.69" xml:space="preserve">
<path fill-rule="evenodd" clip-rule="evenodd" d="M0.111,29.009c0.265-1.085,0.42-2.212,0.814-3.248
	c1.074-2.819,2.854-5.1,5.479-6.66c0.256-0.152,0.333-0.318,0.34-0.612c0.106-4.374,3.099-7.778,7.405-8.38
	c1.484-0.208,2.943-0.007,4.334,0.584c0.202,0.086,0.403,0.175,0.629,0.272c0.378-0.433,0.734-0.878,1.128-1.286
	c3.28-3.396,7.269-5.26,12.005-5.306c6.364-0.062,12.283,3.942,14.723,9.813c0.679,1.632,1.109,3.316,1.262,5.072
	c0.026,0.301,0.139,0.436,0.428,0.535c4.615,1.591,7.268,4.83,8.045,9.631c0.014,0.085,0.063,0.165,0.097,0.247
	c0,0.738,0,1.477,0,2.215c-0.214,0.873-0.349,1.775-0.655,2.615c-1.446,3.959-4.249,6.461-8.354,7.368
	c-1.332,0.295-2.748,0.216-4.126,0.287c-0.571,0.03-1.145,0.012-1.716,0.004c-0.756-0.012-1.191-0.359-1.199-0.94
	c-0.007-0.589,0.421-0.936,1.177-0.947c1.439-0.021,2.881,0.017,4.315-0.07c5.218-0.315,9.28-5.303,8.59-10.499
	c-0.547-4.124-3.385-7.413-7.338-8.238c-1.347-0.281-2.786-0.122-4.183-0.155c-0.22-0.005-0.441,0.054-0.661,0.047
	c-0.521-0.015-0.896-0.359-0.938-0.835c-0.048-0.538,0.272-0.978,0.851-1.027c0.936-0.081,1.876-0.101,2.814-0.14
	c0.292-0.012,0.585-0.002,0.877-0.002c-0.087-4.184-3.095-9.795-8.793-12.093C31.628,4.91,24.705,6.889,20.819,11.94
	c0.643,0.881,1.328,1.704,1.881,2.607c0.694,1.134,0.987,2.413,1.011,3.747c0.013,0.712-0.311,1.147-0.883,1.177
	c-0.556,0.029-0.969-0.384-0.995-1.092c-0.058-1.572-0.561-2.975-1.609-4.14c-1.829-2.033-4.118-2.773-6.754-2.05
	c-2.592,0.711-4.168,2.49-4.713,5.119c-0.147,0.712-0.134,1.468-0.117,2.201c0.01,0.446-0.17,0.625-0.535,0.827
	c-4.024,2.233-6.202,5.65-6.053,10.27c0.167,5.163,4.376,9.313,9.522,9.604c1.729,0.098,3.467,0.044,5.201,0.066
	c0.237,0.004,0.549-0.032,0.692,0.098c0.249,0.226,0.545,0.57,0.538,0.858c-0.007,0.286-0.335,0.592-0.578,0.832
	c-0.105,0.105-0.351,0.096-0.532,0.095c-1.863-0.016-3.729,0.019-5.588-0.073c-4.929-0.243-9.52-4.034-10.743-8.821
	c-0.181-0.71-0.305-1.435-0.455-2.152C0.111,30.412,0.111,29.71,0.111,29.009z"/>
<path fill-rule="evenodd" clip-rule="evenodd" d="M28.456,49.167c0-0.199,0-0.398,0-0.598c0-6.053,0-12.105,0-18.158
	c0-0.166-0.007-0.333,0.004-0.498c0.041-0.581,0.419-0.974,0.933-0.979c0.513-0.005,0.903,0.39,0.943,0.964
	c0.013,0.184,0.005,0.368,0.005,0.553c0,6.034,0,12.068,0,18.103c0,0.202,0,0.403,0,0.738c0.215-0.199,0.356-0.323,0.488-0.455
	c1.725-1.722,3.445-3.444,5.171-5.164c0.155-0.155,0.317-0.315,0.504-0.427c0.398-0.237,0.79-0.171,1.11,0.149
	c0.323,0.323,0.369,0.72,0.139,1.114c-0.109,0.187-0.273,0.347-0.429,0.502c-2.321,2.324-4.644,4.646-6.968,6.968
	c-0.75,0.749-1.162,0.751-1.906,0.008c-2.337-2.334-4.673-4.67-7.007-7.007c-0.143-0.143-0.291-0.29-0.392-0.461
	c-0.234-0.395-0.194-0.788,0.126-1.115c0.317-0.325,0.708-0.396,1.108-0.165c0.188,0.108,0.35,0.269,0.506,0.424
	c1.712,1.707,3.421,3.416,5.128,5.128c0.141,0.143,0.259,0.308,0.388,0.462C28.358,49.225,28.407,49.196,28.456,49.167z"/>
</svg>
