<?xml version="1.0" encoding="utf-8"?>
<!-- Generator: Adobe Illustrator 16.0.3, SVG Export Plug-In . SVG Version: 6.00 Build 0)  -->
<!DOCTYPE svg PUBLIC "-//W3C//DTD SVG 1.1//EN" "http://www.w3.org/Graphics/SVG/1.1/DTD/svg11.dtd">
<svg version="1.1" id="Capa_1" xmlns="http://www.w3.org/2000/svg" xmlns:xlink="http://www.w3.org/1999/xlink" x="0px" y="0px"
	 width="56.69px" height="56.69px" viewBox="0 0 56.69 56.69" enable-background="new 0 0 56.69 56.69" xml:space="preserve">
<path fill-rule="evenodd" clip-rule="evenodd" d="M56.801,37.092c-0.2,0.838-0.327,1.702-0.613,2.511
	c-1.705,4.813-5.828,7.741-10.969,7.751c-10.918,0.021-21.835,0.051-32.752-0.013c-5.193-0.03-9.009-2.463-11.254-7.173
	c-0.491-1.029-0.665-2.209-0.982-3.32c-0.049-0.174-0.08-0.354-0.119-0.531c0-0.738,0-1.477,0-2.214
	c0.217-0.908,0.363-1.84,0.665-2.718c1.03-2.992,2.844-5.39,5.571-7.047c0.284-0.172,0.393-0.351,0.4-0.691
	c0.113-5.125,4.402-8.92,9.477-8.338c0.989,0.113,1.947,0.489,2.992,0.763c1-1.3,2.236-2.505,3.68-3.486
	c3.045-2.069,6.378-3.136,10.091-2.992c7.003,0.273,13.022,5.314,14.787,12.153c0.229,0.888,0.333,1.81,0.455,2.722
	c0.041,0.307,0.162,0.429,0.441,0.525c4.609,1.598,7.261,4.834,8.033,9.635c0.014,0.086,0.063,0.166,0.097,0.248
	C56.801,35.616,56.801,36.354,56.801,37.092z M20.718,17.262c0.177,0.162,0.333,0.292,0.475,0.435
	c1.601,1.617,2.464,3.555,2.519,5.838c0.016,0.67-0.317,1.095-0.871,1.133c-0.533,0.037-0.931-0.366-1.008-1.025
	c-0.042-0.365-0.055-0.735-0.12-1.097c-0.559-3.104-3.154-5.303-6.374-5.412c-3.013-0.102-5.774,1.975-6.485,4.979
	c-0.209,0.882-0.145,1.827-0.241,2.74c-0.021,0.196-0.148,0.473-0.306,0.549c-2.332,1.133-4.022,2.902-5.161,5.202
	c-1.276,2.578-1.543,5.255-0.559,7.986c1.548,4.297,5.314,6.873,10.014,6.876c10.829,0.006,21.659,0.006,32.488-0.008
	c0.788-0.001,1.596-0.056,2.36-0.23c6.271-1.432,9.351-8.249,6.229-13.876c-1.559-2.811-3.954-4.554-7.219-4.85
	c-1.203-0.109-2.429,0.026-3.644,0.058c-0.622,0.016-1.058-0.307-1.105-0.839c-0.049-0.558,0.281-0.982,0.907-1.032
	c0.972-0.077,1.949-0.094,2.924-0.131c0.247-0.01,0.495-0.001,0.746-0.001c-0.281-4.917-3.745-10.446-9.808-12.467
	C31.089,10.292,24.532,12.389,20.718,17.262z"/>
</svg>
