<?xml version="1.0" encoding="utf-8"?>
<!-- Generator: Adobe Illustrator 16.0.3, SVG Export Plug-In . SVG Version: 6.00 Build 0)  -->
<!DOCTYPE svg PUBLIC "-//W3C//DTD SVG 1.1//EN" "http://www.w3.org/Graphics/SVG/1.1/DTD/svg11.dtd">
<svg version="1.1" id="Capa_1" xmlns="http://www.w3.org/2000/svg" xmlns:xlink="http://www.w3.org/1999/xlink" x="0px" y="0px"
	 width="56.69px" height="56.69px" viewBox="0 0 56.69 56.69" enable-background="new 0 0 56.69 56.69" xml:space="preserve">
<path fill-rule="evenodd" clip-rule="evenodd" d="M0.111,34.324c0-4.134,0-8.267,0-12.401c0.263-1.095,0.778-2.045,1.69-2.808
	c-0.908-0.731-1.396-1.671-1.69-2.729c0-4.133,0-8.267,0-12.401c0.141-0.414,0.239-0.85,0.431-1.239
	C1.411,0.992,2.88,0.224,4.799,0.225c11.086,0,22.172,0,33.259,0c4.686,0,9.371,0.001,14.056-0.001c1.181,0,2.249,0.293,3.171,1.075
	c0.844,0.715,1.236,1.665,1.517,2.687c0,4.134,0,8.268,0,12.401c-0.274,0.924-0.596,1.844-1.376,2.46
	c-0.589,0.466-1.268,0.818-1.902,1.218c0.03,0.021,0.114,0.091,0.21,0.142c1.426,0.76,2.555,1.789,3.068,3.377
	c0,8.895,0,17.79,0,26.684c-0.354,0.638-0.618,1.351-1.079,1.897c-1.142,1.352-2.721,2.068-4.352,2.625
	c-5.31,1.813-10.799,2.229-16.328,1.687c-3.625-0.355-7.236-0.524-10.871-0.508C17.75,55.999,11.33,55.973,4.909,55.98
	c-1.281,0.002-2.442-0.295-3.408-1.186c-0.779-0.718-1.154-1.644-1.39-2.645c0-4.097,0-8.193,0-12.29
	c0.269-1.09,0.786-2.036,1.688-2.796C0.878,36.332,0.402,35.382,0.111,34.324z M28.515,2.111c-7.914,0-15.827-0.001-23.741,0.001
	C2.998,2.113,2,3.117,1.998,4.896c-0.003,3.486-0.002,6.973,0,10.459c0.001,1.862,0.962,2.815,2.838,2.815
	c8.117,0.001,16.233,0.001,24.35-0.001c0.239,0,0.48-0.003,0.717-0.037c1.586-0.229,3.163-0.531,4.756-0.69
	c3.222-0.321,6.454-0.318,9.659,0.142c2.576,0.37,5.142,0.738,7.752,0.587c0.019-0.001,0.037,0,0.056,0
	c1.823-0.005,2.788-0.975,2.789-2.809c0.003-3.431,0.001-6.862,0.001-10.293c0-2.012-0.938-2.957-2.937-2.957
	C44.157,2.111,36.336,2.111,28.515,2.111z M38.795,29.37c2.002-0.16,4.012-0.257,6.004-0.497c2.493-0.301,4.954-0.822,7.227-1.934
	c0.876-0.429,1.701-1.029,2.419-1.692c0.662-0.611,0.631-1.273,0.083-1.984c-0.287-0.372-0.651-0.708-1.038-0.977
	c-1.477-1.021-3.154-1.599-4.879-2.005c-6.665-1.569-13.334-1.566-19.979,0.124c-1.697,0.432-3.355,1.012-4.757,2.13
	c-1.419,1.131-1.436,2.2-0.02,3.344c1.092,0.881,2.381,1.39,3.7,1.815C31.207,28.871,34.973,29.252,38.795,29.37z M20.905,38.056
	c-0.211-0.016-0.372-0.038-0.532-0.039c-5.204-0.001-10.408-0.006-15.611,0.002C2.981,38.021,2,39.025,1.998,40.813
	c-0.002,3.451-0.001,6.901,0,10.353c0,1.974,0.938,2.914,2.914,2.915c6.292,0.001,12.585,0,18.877,0c0.189,0,0.378,0,0.568,0
	c0.014-0.043,0.027-0.086,0.041-0.13c-0.046-0.024-0.092-0.048-0.138-0.072c-1.217-0.656-2.266-1.475-3.033-2.674
	c-0.212-0.331-0.319-0.594-0.319-0.943c-0.001-3.839-0.001-7.677-0.001-11.515C20.905,38.529,20.905,38.312,20.905,38.056z
	 M20.905,36.125c0-0.321,0-0.54,0-0.759c0-3.69-0.002-7.381,0.004-11.071c0-0.291,0.03-0.591,0.103-0.872
	c0.327-1.256,1.194-2.087,2.232-2.777c0.242-0.161,0.482-0.323,0.723-0.485c-0.019-0.033-0.038-0.066-0.057-0.099
	c-0.146,0-0.292,0-0.438,0c-6.218,0-12.436-0.001-18.654,0.001c-1.845,0.001-2.821,0.991-2.822,2.851
	c-0.001,3.451-0.001,6.901,0,10.351c0,1.906,0.948,2.857,2.854,2.858c5.129,0.002,10.258,0.001,15.388,0.001
	C20.438,36.125,20.637,36.125,20.905,36.125z M22.807,44.523c0,1.682,0.022,3.286-0.01,4.89c-0.013,0.666,0.193,1.229,0.695,1.607
	c0.715,0.54,1.452,1.087,2.258,1.465c2.753,1.294,5.714,1.808,8.714,2.094c4.189,0.398,8.36,0.271,12.5-0.545
	c2.125-0.42,4.191-0.991,6.088-2.076c1.287-0.735,2.04-1.714,1.886-3.313c-0.113-1.169-0.022-2.358-0.022-3.539
	c0-0.177,0-0.353,0-0.564c-0.111,0.038-0.167,0.045-0.206,0.072c-2.039,1.421-4.363,2.136-6.751,2.634
	c-4.507,0.94-9.061,1.185-13.644,0.694C30.301,47.512,26.364,46.81,22.807,44.523z M22.818,36.162
	c-0.004,0.075-0.02,0.233-0.02,0.392c-0.001,1.328,0.061,2.659-0.017,3.982c-0.069,1.185,0.422,2.032,1.388,2.561
	c1.125,0.614,2.287,1.199,3.496,1.612c2.986,1.02,6.099,1.397,9.239,1.522c4.447,0.178,8.842-0.164,13.115-1.502
	c1.445-0.453,2.848-1.016,4.023-2.015c0.576-0.489,0.89-1.09,0.875-1.879c-0.028-1.475-0.004-2.951-0.004-4.426
	c0-0.117-0.021-0.233-0.038-0.42c-2.098,1.5-4.435,2.228-6.836,2.734c-4.614,0.976-9.276,1.194-13.969,0.689
	c-2.57-0.276-5.12-0.673-7.548-1.588C25.26,37.349,24.054,36.722,22.818,36.162z M54.903,27.68
	c-1.382,0.604-2.708,1.294-4.105,1.774c-3.482,1.194-7.106,1.605-10.77,1.692c-4.373,0.104-8.688-0.296-12.89-1.591
	c-1.514-0.466-2.956-1.098-4.31-2.059c-0.014,0.22-0.03,0.36-0.03,0.5c-0.001,1.365,0.052,2.732-0.017,4.093
	c-0.057,1.114,0.396,1.935,1.301,2.438c1.135,0.631,2.311,1.228,3.533,1.658c2.302,0.812,4.708,1.188,7.139,1.394
	c5.226,0.441,10.389,0.175,15.425-1.402c1.39-0.436,2.767-0.969,3.851-1.982c0.392-0.366,0.806-0.929,0.835-1.425
	C54.966,31.047,54.903,29.313,54.903,27.68z"/>
<path fill-rule="evenodd" clip-rule="evenodd" d="M10.026,14.395c-2.303-0.005-4.218-1.909-4.248-4.223
	c-0.03-2.293,1.951-4.281,4.259-4.273c2.323,0.008,4.271,1.975,4.242,4.284C14.25,12.5,12.332,14.399,10.026,14.395z M12.394,10.134
	c-0.01-1.283-1.1-2.358-2.378-2.346c-1.285,0.013-2.36,1.102-2.346,2.377c0.014,1.287,1.095,2.352,2.378,2.342
	C11.334,12.499,12.404,11.416,12.394,10.134z"/>
<path fill-rule="evenodd" clip-rule="evenodd" d="M34.135,12.503c-0.494,0.006-0.914-0.399-0.932-0.899
	c-0.019-0.528,0.392-0.965,0.912-0.971c0.513-0.006,0.957,0.441,0.946,0.951C35.051,12.071,34.62,12.498,34.135,12.503z"/>
<path fill-rule="evenodd" clip-rule="evenodd" d="M43.569,9.656c-0.5-0.001-0.917-0.405-0.932-0.9
	c-0.015-0.506,0.431-0.96,0.938-0.958c0.514,0.002,0.948,0.453,0.93,0.965C44.488,9.26,44.07,9.658,43.569,9.656z"/>
<path fill-rule="evenodd" clip-rule="evenodd" d="M46.394,11.552c0.008,0.511-0.437,0.96-0.943,0.953
	c-0.479-0.007-0.918-0.444-0.927-0.923c-0.009-0.505,0.443-0.956,0.952-0.948C45.966,10.641,46.386,11.062,46.394,11.552z"/>
<path fill-rule="evenodd" clip-rule="evenodd" d="M38.844,11.591c-0.016,0.504-0.49,0.941-0.99,0.911
	c-0.492-0.03-0.888-0.462-0.875-0.958c0.012-0.519,0.464-0.938,0.978-0.908C38.444,10.664,38.859,11.11,38.844,11.591z"/>
<path fill-rule="evenodd" clip-rule="evenodd" d="M49.245,10.633c0.519,0.002,0.938,0.441,0.923,0.964
	c-0.015,0.496-0.438,0.908-0.929,0.906c-0.504-0.001-0.956-0.47-0.936-0.967C48.324,11.046,48.758,10.631,49.245,10.633z"/>
<path fill-rule="evenodd" clip-rule="evenodd" d="M39.801,7.798c0.484,0.003,0.918,0.428,0.932,0.913
	c0.015,0.513-0.419,0.948-0.943,0.945c-0.526-0.003-0.943-0.435-0.925-0.957C38.882,8.205,39.308,7.794,39.801,7.798z"/>
<path fill-rule="evenodd" clip-rule="evenodd" d="M32.227,9.653c-0.534-0.005-0.931-0.421-0.912-0.958
	c0.017-0.501,0.432-0.9,0.931-0.895c0.496,0.006,0.912,0.417,0.922,0.913C33.179,9.234,32.754,9.658,32.227,9.653z"/>
<path fill-rule="evenodd" clip-rule="evenodd" d="M36.028,9.655c-0.535,0.006-0.945-0.405-0.938-0.938
	c0.006-0.501,0.412-0.908,0.913-0.916c0.51-0.007,0.961,0.441,0.95,0.945C36.943,9.241,36.527,9.65,36.028,9.655z"/>
<path fill-rule="evenodd" clip-rule="evenodd" d="M42.622,11.566c0,0.503-0.463,0.953-0.965,0.937
	c-0.485-0.016-0.907-0.45-0.908-0.935c0-0.509,0.453-0.95,0.962-0.934C42.198,10.649,42.622,11.083,42.622,11.566z"/>
<path fill-rule="evenodd" clip-rule="evenodd" d="M47.355,9.655c-0.524,0.001-0.959-0.435-0.942-0.947
	c0.016-0.483,0.451-0.907,0.936-0.909c0.519-0.002,0.943,0.435,0.93,0.958C48.266,9.264,47.866,9.653,47.355,9.655z"/>
<path fill-rule="evenodd" clip-rule="evenodd" d="M10.033,41.816c2.34,0.001,4.27,1.94,4.247,4.266
	c-0.023,2.319-1.933,4.21-4.25,4.208c-2.313-0.001-4.22-1.89-4.251-4.211C5.746,43.769,7.697,41.815,10.033,41.816z M10.038,48.401
	c1.295-0.002,2.358-1.064,2.355-2.353c-0.004-1.292-1.067-2.345-2.367-2.342c-1.299,0.002-2.36,1.062-2.356,2.353
	C7.675,47.351,8.739,48.404,10.038,48.401z"/>
<path fill-rule="evenodd" clip-rule="evenodd" d="M9.789,23.882c2.246-0.208,4.259,1.566,4.476,3.946
	c0.201,2.206-1.577,4.293-3.823,4.49c-2.452,0.215-4.492-1.519-4.64-4.057C5.669,26,7.453,23.99,9.789,23.882z M10.047,30.453
	c1.294-0.007,2.355-1.076,2.346-2.365c-0.009-1.288-1.085-2.348-2.375-2.339c-1.292,0.009-2.359,1.086-2.347,2.368
	C7.683,29.41,8.75,30.458,10.047,30.453z"/>
</svg>
