<?xml version="1.0" encoding="utf-8"?>
<!-- Generator: Adobe Illustrator 16.0.3, SVG Export Plug-In . SVG Version: 6.00 Build 0)  -->
<!DOCTYPE svg PUBLIC "-//W3C//DTD SVG 1.1//EN" "http://www.w3.org/Graphics/SVG/1.1/DTD/svg11.dtd">
<svg version="1.1" id="Capa_1" xmlns="http://www.w3.org/2000/svg" xmlns:xlink="http://www.w3.org/1999/xlink" x="0px" y="0px"
	 width="56.69px" height="56.69px" viewBox="0 0 56.69 56.69" enable-background="new 0 0 56.69 56.69" xml:space="preserve">
<path fill-rule="evenodd" clip-rule="evenodd" d="M25.466,0.111c1.993,0,3.986,0,5.979,0c1.282,0.108,2.565,0.212,3.849,0.325
	c3.833,0.338,7.599,1.021,11.218,2.36c2.154,0.797,4.206,1.805,5.871,3.444c1.185,1.166,1.873,2.51,1.868,4.258
	c-0.036,12.123-0.023,24.245-0.009,36.368c0.001,0.889-0.268,1.667-0.7,2.402c-0.841,1.431-2.129,2.387-3.539,3.18
	c-3.756,2.113-7.879,3.064-12.089,3.685c-4.339,0.639-8.702,0.797-13.082,0.563c-4.621-0.247-9.174-0.877-13.58-2.342
	c-2.391-0.794-4.692-1.791-6.583-3.517c-1.255-1.146-2.011-2.506-2.006-4.304c0.031-11.993,0.035-23.987-0.004-35.981
	c-0.006-1.79,0.686-3.165,1.91-4.351c1.69-1.638,3.76-2.641,5.936-3.44c3.96-1.456,8.084-2.104,12.27-2.435
	C23.671,0.256,24.569,0.183,25.466,0.111z M28.457,17.684c1.915-0.1,3.833-0.16,5.744-0.309c3.833-0.298,7.604-0.954,11.25-2.211
	c1.659-0.572,3.265-1.267,4.688-2.318c0.354-0.262,0.703-0.543,1.008-0.861c1.365-1.423,1.31-2.93-0.133-4.3
	c-1.253-1.19-2.764-1.953-4.346-2.583c-4.293-1.708-8.798-2.432-13.372-2.755c-4.295-0.304-8.589-0.228-12.868,0.31
	c-3.502,0.441-6.945,1.139-10.233,2.462C8.634,5.748,7.14,6.504,5.9,7.682c-1.443,1.371-1.502,2.875-0.138,4.3
	c0.304,0.317,0.65,0.603,1.007,0.861c1.956,1.415,4.185,2.232,6.479,2.883C18.217,17.136,23.307,17.61,28.457,17.684z M4.755,38.585
	c0,0.306,0,0.502,0,0.698c0,2.472,0.015,4.943-0.008,7.415c-0.008,0.867,0.304,1.578,0.86,2.204
	c1.015,1.143,2.316,1.874,3.686,2.483c4.595,2.047,9.48,2.826,14.443,3.182c4.239,0.304,8.477,0.216,12.701-0.313
	c3.41-0.427,6.762-1.108,9.977-2.352c1.534-0.593,3.01-1.308,4.274-2.389c0.954-0.816,1.521-1.776,1.484-3.109
	c-0.063-2.378-0.018-4.759-0.018-7.138c0-0.194,0-0.388,0-0.682c-0.418,0.319-0.741,0.583-1.081,0.823
	c-2.607,1.838-5.576,2.816-8.634,3.551c-2.817,0.677-5.683,1.061-8.576,1.257c-5.819,0.396-11.614,0.26-17.355-0.833
	C12.322,42.588,8.256,41.435,4.755,38.585z M4.755,26.213c0,0.245,0,0.386,0,0.528c0.004,2.49,0.034,4.98,0,7.47
	c-0.014,0.996,0.336,1.791,1.001,2.485c0.974,1.017,2.175,1.697,3.437,2.276c3.176,1.459,6.546,2.25,9.982,2.739
	c6.374,0.906,12.756,0.904,19.124-0.09c3.23-0.504,6.396-1.267,9.385-2.635c1.313-0.601,2.565-1.306,3.557-2.387
	c0.538-0.586,0.906-1.254,0.907-2.078c0.002-2.545,0.004-5.091,0.006-7.636c0-0.193,0-0.386,0-0.662
	c-0.143,0.096-0.203,0.129-0.255,0.172c-2.066,1.715-4.477,2.744-7.014,3.521c-3.452,1.059-6.99,1.625-10.585,1.893
	c-6.206,0.461-12.382,0.31-18.498-0.936C11.86,30.072,8.051,28.907,4.755,26.213z M4.78,13.863
	c-0.011,0.225-0.024,0.366-0.024,0.506c0.003,2.491,0.033,4.982,0,7.473c-0.013,0.996,0.335,1.791,1.003,2.485
	c1.003,1.043,2.238,1.74,3.536,2.327c3.116,1.409,6.416,2.183,9.779,2.671c6.469,0.938,12.941,0.929,19.403-0.102
	c3.139-0.501,6.213-1.252,9.124-2.563c1.367-0.615,2.671-1.345,3.689-2.485c0.506-0.565,0.854-1.208,0.855-1.986
	c0.008-2.62,0.007-5.24,0.006-7.86c0-0.134-0.026-0.268-0.047-0.464c-1.491,1.266-3.12,2.152-4.854,2.853
	c-4.13,1.668-8.468,2.403-12.874,2.74c-6.297,0.481-12.576,0.315-18.782-0.979C11.729,17.671,8.001,16.484,4.78,13.863z"/>
</svg>
