<?xml version="1.0" encoding="utf-8"?>
<!-- Generator: Adobe Illustrator 16.0.3, SVG Export Plug-In . SVG Version: 6.00 Build 0)  -->
<!DOCTYPE svg PUBLIC "-//W3C//DTD SVG 1.1//EN" "http://www.w3.org/Graphics/SVG/1.1/DTD/svg11.dtd">
<svg version="1.1" id="Capa_1" xmlns="http://www.w3.org/2000/svg" xmlns:xlink="http://www.w3.org/1999/xlink" x="0px" y="0px"
	 width="56.69px" height="56.69px" viewBox="0 0 56.69 56.69" enable-background="new 0 0 56.69 56.69" xml:space="preserve">
<path fill-rule="evenodd" clip-rule="evenodd" d="M3.654,0.111C4.199,0.354,4.392,0.788,4.36,1.362
	C4.342,1.693,4.39,2.03,4.349,2.357C4.286,2.869,4.507,2.962,4.975,2.961c6.237-0.014,12.475-0.01,18.712-0.009
	c1.221,0,1.455,0.235,1.456,1.452c0,1.065,0,2.13,0,3.258c0.292,0,0.526,0,0.76,0c9.005,0,18.01,0,27.016,0
	c0.185,0,0.37-0.011,0.553,0.007C54.31,7.75,54.68,8.47,54.238,9.186c-0.261,0.423-0.559,0.824-0.841,1.234
	c-2.945,4.286-5.887,8.575-8.846,12.853c-0.235,0.339-0.25,0.561-0.009,0.91c3.158,4.565,6.299,9.142,9.442,13.717
	c0.136,0.196,0.283,0.394,0.372,0.612c0.229,0.561-0.112,1.15-0.71,1.248c-0.198,0.032-0.404,0.027-0.607,0.027
	c-11.367,0.001-22.734-0.005-34.102,0.006c-2.038,0.001-3.63-0.755-4.588-2.598c-0.771-1.482-0.702-2.98,0.099-4.444
	c0.071-0.13,0.151-0.254,0.225-0.381c0.008-0.014,0.006-0.034,0.017-0.097c-3.422,0-6.836,0-10.335,0c0,0.224,0,0.457,0,0.69
	c0,7.492-0.003,14.983,0.005,22.476c0.001,0.598-0.097,1.103-0.708,1.361c-0.185,0-0.369,0-0.554,0
	c-0.509-0.315-0.641-0.79-0.641-1.363c0.007-17.987,0.007-35.975,0-53.963c0-0.573,0.132-1.047,0.641-1.363
	C3.285,0.111,3.47,0.111,3.654,0.111z M51.684,37.896c-0.211-0.313-0.342-0.509-0.476-0.703c-2.861-4.164-5.724-8.328-8.585-12.493
	c-0.619-0.9-0.619-1.037-0.013-1.92c2.903-4.225,5.809-8.449,8.711-12.675c0.104-0.153,0.194-0.318,0.309-0.506
	c-8.88,0-17.669,0-26.487,0c0,0.268,0,0.489,0,0.709c0,6.79,0,13.58,0,20.37c0,1.356-0.197,1.55-1.577,1.55
	c-1.643,0-3.285-0.021-4.927,0.006c-2.13,0.035-3.512,2.024-2.71,3.904c0.552,1.294,1.605,1.767,2.975,1.765
	c10.702-0.013,21.404-0.007,32.105-0.007C51.19,37.896,51.371,37.896,51.684,37.896z M4.381,30.302c6.316,0,12.58,0,18.839,0
	c0-8.498,0-16.957,0-25.415c-6.295,0-12.555,0-18.839,0C4.381,13.375,4.381,21.818,4.381,30.302z"/>
</svg>
