<?xml version="1.0" encoding="utf-8"?>
<!-- Generator: Adobe Illustrator 16.0.3, SVG Export Plug-In . SVG Version: 6.00 Build 0)  -->
<!DOCTYPE svg PUBLIC "-//W3C//DTD SVG 1.1//EN" "http://www.w3.org/Graphics/SVG/1.1/DTD/svg11.dtd">
<svg version="1.1" id="Capa_1" xmlns="http://www.w3.org/2000/svg" xmlns:xlink="http://www.w3.org/1999/xlink" x="0px" y="0px"
	 width="56.69px" height="56.69px" viewBox="0 0 56.69 56.69" enable-background="new 0 0 56.69 56.69" xml:space="preserve">
<path fill-rule="evenodd" clip-rule="evenodd" d="M6.976,0.111C7.501,0.37,7.702,0.793,7.668,1.373
	C7.639,1.867,7.662,2.364,7.662,2.952c0.29,0,0.54,0,0.791,0c13.654,0,27.309,0,40.963,0c0.166,0,0.332,0.004,0.498-0.001
	c0.445-0.013,0.853,0.056,1.094,0.491c0.242,0.436,0.069,0.809-0.167,1.186c-2.865,4.58-5.727,9.161-8.589,13.743
	c-0.127,0.203-0.251,0.408-0.392,0.635c0.162,0.262,0.323,0.529,0.488,0.793c2.805,4.487,5.608,8.975,8.413,13.462
	c0.087,0.14,0.184,0.277,0.253,0.427c0.291,0.629-0.039,1.257-0.727,1.367c-0.217,0.034-0.441,0.022-0.663,0.022
	c-13.728,0.001-27.456,0.001-41.185,0.001c-0.236,0-0.473,0-0.778,0c0,0.269,0,0.484,0,0.699c0,6.569-0.004,13.139,0.008,19.707
	c0.001,0.59-0.133,1.051-0.694,1.316c-0.185,0-0.369,0-0.554,0c-0.511-0.31-0.659-0.771-0.658-1.352
	c0.008-17.995,0.008-35.991,0-53.986c0-0.58,0.147-1.042,0.658-1.352C6.607,0.111,6.792,0.111,6.976,0.111z M7.706,4.871
	c0,9.47,0,18.869,0,28.264c13.585,0,27.127,0,40.736,0c-0.145-0.239-0.246-0.413-0.353-0.583c-2.637-4.222-5.265-8.45-7.923-12.658
	c-0.4-0.634-0.404-1.135-0.003-1.771c2.658-4.208,5.286-8.436,7.923-12.658c0.111-0.178,0.216-0.361,0.354-0.595
	C34.807,4.871,21.27,4.871,7.706,4.871z"/>
</svg>
