<?xml version="1.0" encoding="utf-8"?>
<!-- Generator: Adobe Illustrator 16.0.3, SVG Export Plug-In . SVG Version: 6.00 Build 0)  -->
<!DOCTYPE svg PUBLIC "-//W3C//DTD SVG 1.1//EN" "http://www.w3.org/Graphics/SVG/1.1/DTD/svg11.dtd">
<svg version="1.1" id="Capa_1" xmlns="http://www.w3.org/2000/svg" xmlns:xlink="http://www.w3.org/1999/xlink" x="0px" y="0px"
	 width="56.69px" height="56.69px" viewBox="0 0 56.69 56.69" enable-background="new 0 0 56.69 56.69" xml:space="preserve">
<path fill-rule="evenodd" clip-rule="evenodd" d="M26.621,0.109c1.022,0,2.045,0,3.067,0c0.177,0.033,0.353,0.073,0.529,0.096
	c1.049,0.136,2.109,0.208,3.145,0.411c6.784,1.327,12.4,4.664,16.685,10.079c5.313,6.717,7.188,14.366,5.619,22.786
	c-1.212,6.501-4.476,11.862-9.504,16.13c-3.852,3.269-8.295,5.324-13.286,6.16c-1.057,0.177-2.124,0.286-3.188,0.427
	c-1.022,0-2.044,0-3.067,0c-0.158-0.031-0.314-0.081-0.474-0.092c-3.684-0.247-7.172-1.213-10.473-2.859
	c-3.867-1.929-7.106-4.619-9.745-8.04c-2.791-3.619-4.586-7.677-5.379-12.174c-0.189-1.071-0.296-2.157-0.441-3.236
	c0-1.096,0-2.191,0-3.287c0.086-0.72,0.156-1.442,0.26-2.16c0.92-6.35,3.657-11.793,8.252-16.27
	c4.163-4.056,9.126-6.589,14.869-7.554C24.528,0.354,25.577,0.247,26.621,0.109z M16.275,14.674c-2.588-1.271-5.1-2.504-7.683-3.773
	c-4.006,4.574-6.205,10.004-6.516,16.246c3.886,0,7.723,0,11.597,0C13.82,22.784,14.678,18.596,16.275,14.674z M47.718,10.903
	c-2.609,1.28-5.133,2.517-7.687,3.769c1.604,3.938,2.458,8.126,2.604,12.474c3.885,0,7.722,0,11.597,0
	C53.921,20.913,51.728,15.492,47.718,10.903z M13.552,29.167c-3.769,0-7.607,0-11.473,0c0.289,5.952,2.317,11.179,6.105,15.771
	c2.456-1.664,5.052-2.973,7.712-3.952c-0.524-1.971-1.13-3.865-1.515-5.804C13.994,33.22,13.825,31.216,13.552,29.167z
	 M48.247,44.792c3.672-4.466,5.702-9.691,5.98-15.625c-3.89,0-7.728,0-11.596,0c-0.128,4.066-0.899,7.976-2.272,11.606
	C43.008,42.123,45.583,43.435,48.247,44.792z M18.198,15.115c-1.596,3.881-2.472,7.861-2.565,12.021c3.889,0,7.707,0,11.514,0
	c0-3.559,0-7.073,0-10.629C24.115,16.409,21.167,15.963,18.198,15.115z M29.155,27.131c3.87,0,7.688,0,11.528,0
	c-0.12-4.189-0.973-8.164-2.574-12.014c-2.953,0.851-5.919,1.286-8.954,1.393C29.155,20.078,29.155,23.593,29.155,27.131z
	 M29.144,38.838c3.18,0.096,6.263,0.584,9.311,1.487c1.377-3.626,2.143-7.316,2.221-11.151c-3.891,0-7.708,0-11.531,0
	C29.144,32.392,29.144,35.564,29.144,38.838z M27.135,38.841c0-3.294,0-6.493,0-9.679c-3.852,0-7.657,0-11.505,0
	c0.095,3.87,0.846,7.564,2.228,11.162C20.923,39.421,23.99,38.931,27.135,38.841z M9.5,46.386c4.224,4.226,9.228,6.763,15.235,7.639
	c-3.429-3.319-6.066-7.044-7.977-11.289C14.179,43.663,11.796,44.858,9.5,46.386z M46.805,46.388
	c-2.274-1.527-4.672-2.722-7.098-3.596c-1.21,2.013-2.284,4.052-3.601,5.919c-1.313,1.862-2.868,3.553-4.283,5.277
	C37.591,53.144,42.597,50.607,46.805,46.388z M37.699,42.126c-2.821-0.828-5.634-1.264-8.531-1.349c0,4.262,0,8.493,0,12.81
	C32.85,50.339,35.666,46.563,37.699,42.126z M18.607,42.131c2.049,4.438,4.852,8.228,8.539,11.453c0-4.332,0-8.557,0-12.807
	C24.241,40.868,21.427,41.298,18.607,42.131z M24.733,2.285c-5.718,0.828-10.536,3.172-14.646,7.063
	c2.242,1.417,4.555,2.544,7.046,3.391C19.017,8.81,21.542,5.381,24.733,2.285z M31.569,2.284c3.225,3.115,5.729,6.558,7.615,10.457
	c2.504-0.869,4.817-1.98,7.037-3.396C42.1,5.456,37.292,3.111,31.569,2.284z M27.157,2.705c-3.462,3.053-6.146,6.549-8.133,10.597
	c1.846,0.666,6.872,1.405,8.133,1.201C27.157,10.611,27.157,6.716,27.157,2.705z M37.3,13.326
	c-2.017-4.083-4.691-7.582-8.138-10.607c0,4,0,7.907,0,11.849C31.921,14.479,34.594,14.085,37.3,13.326z"/>
</svg>
