<?xml version="1.0" encoding="utf-8"?>
<!-- Generator: Adobe Illustrator 16.0.3, SVG Export Plug-In . SVG Version: 6.00 Build 0)  -->
<!DOCTYPE svg PUBLIC "-//W3C//DTD SVG 1.1//EN" "http://www.w3.org/Graphics/SVG/1.1/DTD/svg11.dtd">
<svg version="1.1" id="Capa_1" xmlns="http://www.w3.org/2000/svg" xmlns:xlink="http://www.w3.org/1999/xlink" x="0px" y="0px"
	 width="56.69px" height="56.69px" viewBox="0 0 56.69 56.69" enable-background="new 0 0 56.69 56.69" xml:space="preserve">
<path fill-rule="evenodd" clip-rule="evenodd" d="M7.063,56.799c0.011-0.236,0.031-0.472,0.031-0.708
	C7.096,45.434,7.096,34.777,7.096,24.12c0-0.233,0-0.466,0-0.763c2.97,0,5.879,0,8.856,0c0-0.277,0-0.49,0-0.703
	c0-3.285,0.068-6.571-0.015-9.854C15.77,6.172,20.829,1.549,26.582,0.822c0.179-0.022,0.354-0.075,0.53-0.113
	c0.767,0,1.534,0,2.301,0c1.078,0.254,2.194,0.404,3.228,0.781c3.881,1.417,6.526,4.058,7.591,8.111
	c0.242,0.923,0.315,1.911,0.326,2.87c0.037,3.394,0.015,6.788,0.015,10.183c0,0.2,0,0.399,0,0.683c3.282,0,6.532,0,9.842,0
	c0,0.317,0,0.55,0,0.783c0,10.657,0,21.314,0.002,31.973c0,0.236,0.021,0.472,0.031,0.708C35.985,56.799,21.524,56.799,7.063,56.799
	z M48.411,25.359c-13.137,0-26.215,0-39.313,0c0,7.866,0,15.687,0,23.534c13.116,0,26.198,0,39.313,0
	C48.411,41.044,48.411,33.223,48.411,25.359z M38.568,23.31c0.014-0.124,0.031-0.211,0.031-0.3c0.001-3.65,0.02-7.3-0.01-10.951
	c-0.016-2.014-0.648-3.848-1.934-5.408c-2.612-3.173-6.03-4.375-10.042-3.835c-4.653,0.625-8.811,4.377-8.705,9.82
	c0.065,3.338,0.012,6.68,0.012,10.02c0,0.211,0,0.423,0,0.654C24.847,23.31,31.699,23.31,38.568,23.31z M9.093,54.797
	c13.138,0,26.216,0,39.307,0c0-1.313,0-2.596,0-3.875c-13.122,0-26.2,0-39.307,0C9.093,52.223,9.093,53.492,9.093,54.797z"/>
<path fill-rule="evenodd" clip-rule="evenodd" d="M32.694,38.115c-0.001,0.967,0.022,1.934-0.006,2.899
	c-0.064,2.256-1.743,3.947-3.906,3.963c-2.162,0.017-3.895-1.654-3.954-3.907c-0.052-1.986-0.052-3.977,0.002-5.963
	c0.054-1.998,1.522-3.636,3.324-3.832c2.104-0.229,3.844,0.895,4.38,2.862c0.108,0.398,0.144,0.826,0.153,1.242
	C32.71,36.291,32.695,37.203,32.694,38.115z M30.725,38.114c0-0.948,0.009-1.897-0.003-2.846c-0.014-1.194-0.834-2.063-1.943-2.081
	c-1.123-0.018-1.984,0.87-1.991,2.087c-0.011,1.879-0.01,3.759,0,5.638c0.006,1.235,0.829,2.098,1.97,2.096
	c1.14-0.001,1.954-0.864,1.965-2.102C30.731,39.975,30.725,39.044,30.725,38.114z"/>
</svg>
