<?xml version="1.0" encoding="utf-8"?>
<!-- Generator: Adobe Illustrator 16.0.3, SVG Export Plug-In . SVG Version: 6.00 Build 0)  -->
<!DOCTYPE svg PUBLIC "-//W3C//DTD SVG 1.1//EN" "http://www.w3.org/Graphics/SVG/1.1/DTD/svg11.dtd">
<svg version="1.1" id="Capa_1" xmlns="http://www.w3.org/2000/svg" xmlns:xlink="http://www.w3.org/1999/xlink" x="0px" y="0px"
	 width="56.69px" height="56.69px" viewBox="0 0 56.69 56.69" enable-background="new 0 0 56.69 56.69" xml:space="preserve">
<path fill-rule="evenodd" clip-rule="evenodd" d="M29.77,0.31c1.046,0.181,2.109,0.295,3.136,0.554
	c4.925,1.244,8.686,4.012,10.997,8.598c1.002,1.988,1.389,4.129,1.4,6.343c0.01,1.636,0.002,3.271,0.002,4.907
	c0,0.2,0,0.399,0,0.632c1.386,0.282,2.612,0.834,3.651,1.751c1.756,1.55,2.615,3.516,2.618,5.847
	c0.009,6.708,0.025,13.417-0.005,20.126c-0.019,4-2.554,6.938-6.489,7.645c-0.068,0.012-0.131,0.058-0.195,0.088
	c-10.887,0-21.772,0-32.659,0c-0.946-0.328-1.965-0.525-2.823-1.01c-2.585-1.46-3.851-3.771-3.862-6.723
	C5.517,42.359,5.534,35.65,5.534,28.942c0-3.847,2.6-6.857,6.272-7.605c0-0.197-0.002-0.411,0-0.625
	c0.024-2.058-0.002-4.117,0.084-6.172c0.121-2.878,1.169-5.449,2.935-7.696c3.074-3.911,7.18-5.948,12.089-6.45
	c0.144-0.015,0.285-0.056,0.427-0.084C28.151,0.31,28.96,0.31,29.77,0.31z M28.579,23.332c-5.02,0-10.04-0.006-15.06,0.007
	c-0.583,0.001-1.19,0.022-1.746,0.178c-2.617,0.73-4.143,2.787-4.146,5.548c-0.007,6.638-0.01,13.275,0,19.914
	c0.005,3.363,2.379,5.725,5.734,5.726c10.132,0.003,20.264,0.003,30.395,0c3.33-0.002,5.717-2.354,5.724-5.68
	c0.016-6.675,0.024-13.35-0.02-20.023c-0.006-0.855-0.199-1.779-0.565-2.547c-1.012-2.126-2.799-3.123-5.147-3.123
	C38.691,23.333,33.635,23.332,28.579,23.332z M43.211,21.208c0-1.356,0.016-2.642-0.004-3.928c-0.018-1.121,0.03-2.255-0.131-3.357
	c-0.61-4.151-2.85-7.293-6.451-9.307c-5.808-3.247-11.622-3.041-17.171,0.671c-2.946,1.97-4.908,4.768-5.326,8.336
	c-0.289,2.468-0.152,4.987-0.203,7.483c-0.001,0.027,0.039,0.056,0.074,0.103C23.705,21.208,33.423,21.208,43.211,21.208z"/>
<path fill-rule="evenodd" clip-rule="evenodd" d="M32.744,36.947c0,1.01,0.018,2.021-0.004,3.03
	c-0.051,2.357-1.738,4.145-3.988,4.247c-2.268,0.104-4.187-1.496-4.329-3.856c-0.138-2.287-0.134-4.595-0.001-6.883
	c0.134-2.308,2.039-3.944,4.212-3.869c2.335,0.081,4.051,1.845,4.106,4.245C32.764,34.889,32.744,35.917,32.744,36.947z
	 M30.649,36.982c0-1.01,0.008-2.02-0.001-3.028c-0.012-1.331-0.901-2.27-2.119-2.251c-1.204,0.018-2.061,0.938-2.066,2.247
	c-0.009,1.982-0.009,3.964,0,5.946c0.006,1.311,0.863,2.23,2.063,2.242c1.232,0.012,2.11-0.907,2.123-2.238
	C30.657,38.927,30.649,37.955,30.649,36.982z"/>
</svg>
