<?xml version="1.0" encoding="utf-8"?>
<!-- Generator: Adobe Illustrator 16.0.3, SVG Export Plug-In . SVG Version: 6.00 Build 0)  -->
<!DOCTYPE svg PUBLIC "-//W3C//DTD SVG 1.1//EN" "http://www.w3.org/Graphics/SVG/1.1/DTD/svg11.dtd">
<svg version="1.1" id="Capa_1" xmlns="http://www.w3.org/2000/svg" xmlns:xlink="http://www.w3.org/1999/xlink" x="0px" y="0px"
	 width="56.69px" height="56.69px" viewBox="0 0 56.69 56.69" enable-background="new 0 0 56.69 56.69" xml:space="preserve">
<path fill-rule="evenodd" clip-rule="evenodd" d="M56.8,7.086c-0.102,0.369-0.187,0.743-0.308,1.106
	c-1.356,4.094-6.181,5.58-9.636,2.971c-0.116-0.088-0.239-0.167-0.31-0.216c-3.331,3.326-6.641,6.631-9.968,9.955
	c2.246,3.291,2.248,6.64-0.041,10.016c0.09,0.103,0.179,0.214,0.279,0.314c2.412,2.414,4.829,4.825,7.236,7.244
	c0.229,0.23,0.392,0.339,0.744,0.173c1.66-0.78,3.61-0.349,4.779,1.013c1.229,1.43,1.367,3.423,0.348,4.979
	c-0.968,1.479-2.877,2.178-4.559,1.67c-1.829-0.552-3.015-2.102-2.961-3.993c0.017-0.572,0.266-1.135,0.376-1.708
	c0.034-0.177,0.032-0.445-0.073-0.552c-2.506-2.53-5.028-5.044-7.548-7.56c-0.025-0.024-0.063-0.037-0.03-0.019
	c-0.9,0.421-1.752,0.841-2.624,1.215c-0.351,0.15-0.757,0.167-1.114,0.306c-0.153,0.059-0.352,0.271-0.352,0.415
	c-0.021,3.247-0.011,6.494-0.023,9.741c-0.001,0.356,0.188,0.411,0.46,0.481c1.938,0.507,3.321,1.679,4.17,3.495
	c1.649,3.531-0.652,7.913-4.501,8.556c-3.679,0.614-6.932-1.859-7.308-5.557c-0.287-2.822,1.697-5.71,4.448-6.411
	c0.539-0.137,0.718-0.343,0.711-0.921c-0.036-3.062-0.026-6.125-0.006-9.188c0.002-0.437-0.122-0.602-0.559-0.674
	c-1.273-0.213-2.414-0.763-3.46-1.553c-0.159,0.15-0.295,0.271-0.423,0.4c-4.149,4.147-8.297,8.298-12.45,12.441
	c-0.237,0.236-0.359,0.404-0.194,0.788c1.007,2.345,0.738,4.571-0.91,6.519c-1.65,1.95-3.82,2.62-6.283,1.969
	c-2.466-0.651-3.938-2.337-4.494-4.823c-0.023-0.103-0.07-0.199-0.106-0.3c0-0.553,0-1.106,0-1.66
	c0.357-0.878,0.584-1.84,1.094-2.617c1.948-2.971,5.95-3.601,8.793-1.463c0.132,0.099,0.265,0.196,0.504,0.373
	c4.304-4.363,8.612-8.73,12.945-13.123c-2.273-3.317-2.283-6.683,0.026-10.061c-0.104-0.113-0.199-0.224-0.301-0.327
	c-2.413-2.414-4.831-4.823-7.236-7.244c-0.24-0.242-0.411-0.299-0.747-0.144c-1.723,0.799-3.684,0.316-4.879-1.163
	c-1.163-1.437-1.214-3.532-0.124-4.984c1.155-1.538,3.13-2.1,4.889-1.392c1.677,0.674,2.758,2.496,2.509,4.319
	c-0.074,0.537-0.299,1.052-0.451,1.567c2.598,2.599,5.218,5.219,7.859,7.86c3.324-2.278,6.688-2.28,10.149,0.09
	c0.101-0.144,0.188-0.315,0.317-0.445c3.127-3.134,6.258-6.266,9.393-9.393c0.208-0.208,0.327-0.356,0.175-0.696
	c-1.701-3.793,0.486-7.898,4.603-8.68c0.068-0.013,0.131-0.059,0.196-0.089c0.517,0,1.033,0,1.55,0
	c0.084,0.032,0.166,0.077,0.254,0.094c2.436,0.47,4.048,1.895,4.872,4.22c0.128,0.36,0.201,0.741,0.299,1.112
	C56.8,6.053,56.8,6.569,56.8,7.086z M30.013,32.064c3.409-0.014,6.197-2.817,6.178-6.21c-0.02-3.409-2.812-6.166-6.228-6.15
	c-3.381,0.015-6.146,2.79-6.149,6.172C23.81,29.27,26.622,32.079,30.013,32.064z M29.999,54.72c2.276,0.003,4.118-1.842,4.11-4.116
	c-0.008-2.248-1.832-4.083-4.077-4.103c-2.261-0.019-4.125,1.827-4.138,4.098C25.882,52.871,27.722,54.717,29.999,54.72z
	 M10.41,48.543c-0.007-2.248-1.892-4.128-4.126-4.113c-2.254,0.014-4.102,1.88-4.094,4.136c0.007,2.26,1.877,4.127,4.116,4.111
	C8.56,52.661,10.417,50.79,10.41,48.543z M50.605,2.19c-2.272,0.008-4.121,1.869-4.104,4.129c0.018,2.262,1.896,4.113,4.151,4.09
	c2.245-0.023,4.063-1.861,4.067-4.111C54.725,4.023,52.881,2.182,50.605,2.19z M46.484,44.415c1.133,0.003,2.037-0.88,2.058-2.011
	c0.021-1.141-0.904-2.089-2.043-2.093c-1.128-0.004-2.083,0.956-2.069,2.078C44.444,43.506,45.361,44.411,46.484,44.415z
	 M13.513,11.432c1.126-0.001,2.034-0.895,2.053-2.021c0.019-1.125-0.932-2.089-2.059-2.087c-1.109,0.002-2.035,0.921-2.053,2.037
	C11.436,10.499,12.364,11.433,13.513,11.432z"/>
</svg>
