<?xml version="1.0" encoding="utf-8"?>
<!-- Generator: Adobe Illustrator 16.0.3, SVG Export Plug-In . SVG Version: 6.00 Build 0)  -->
<!DOCTYPE svg PUBLIC "-//W3C//DTD SVG 1.1//EN" "http://www.w3.org/Graphics/SVG/1.1/DTD/svg11.dtd">
<svg version="1.1" id="Capa_1" xmlns="http://www.w3.org/2000/svg" xmlns:xlink="http://www.w3.org/1999/xlink" x="0px" y="0px"
	 width="56.69px" height="56.69px" viewBox="0 0 56.69 56.69" enable-background="new 0 0 56.69 56.69" xml:space="preserve">
<path fill-rule="evenodd" clip-rule="evenodd" d="M56.801,4.429c0,4.097,0,8.194,0,12.291c-0.271,1.083-0.804,2.016-1.685,2.772
	c0.922,0.754,1.412,1.695,1.685,2.764c0,4.133,0,8.268,0,12.4c-0.269,1.089-0.794,2.029-1.691,2.786
	c0.927,0.74,1.406,1.688,1.691,2.75c0,4.097,0,8.194,0,12.291c-0.146,0.452-0.236,0.932-0.445,1.353
	c-0.885,1.778-2.395,2.504-4.326,2.503c-9.26-0.004-18.519-0.002-27.778-0.002c-6.456,0-12.912-0.001-19.368,0.001
	c-1.195,0-2.292-0.267-3.232-1.061c-0.875-0.74-1.298-1.714-1.54-2.794c0-4.097,0-8.194,0-12.291
	c0.271-1.083,0.804-2.016,1.624-2.72c-0.367-0.47-0.744-0.856-1.003-1.311c-0.267-0.468-0.418-1.001-0.62-1.506
	c0-4.133,0-8.267,0-12.4c0.269-1.088,0.795-2.027,1.688-2.787c-0.922-0.742-1.402-1.688-1.688-2.75c0-4.097,0-8.193,0-12.291
	c0.146-0.453,0.237-0.932,0.446-1.353c0.884-1.779,2.394-2.503,4.325-2.502c9.389,0.004,18.778,0.002,28.167,0.002
	c6.327,0,12.654,0.001,18.98-0.001c1.195,0,2.293,0.267,3.232,1.061C56.138,2.374,56.561,3.348,56.801,4.429z M28.43,36.49
	c7.804,0,15.609,0,23.414-0.002c0.258,0,0.517-0.003,0.773-0.029c1.332-0.134,2.273-1.07,2.284-2.4
	c0.028-3.727,0.023-7.454,0.003-11.181c-0.006-1.157-0.766-2.105-1.827-2.355c-0.372-0.088-0.769-0.096-1.154-0.096
	c-15.646-0.004-31.291-0.004-46.937-0.003c-0.221,0-0.443,0.003-0.663,0.024c-1.357,0.128-2.305,1.076-2.314,2.433
	c-0.025,3.727-0.022,7.454,0.001,11.181c0.007,1.15,0.792,2.102,1.852,2.335c0.374,0.082,0.769,0.09,1.155,0.09
	C12.821,36.491,20.625,36.49,28.43,36.49z M28.481,38.383c-7.805,0-15.609,0-23.414,0c-0.221,0-0.443-0.003-0.664,0.011
	c-1.377,0.083-2.381,1.04-2.393,2.412c-0.03,3.727-0.023,7.453-0.004,11.18c0.006,1.134,0.74,2.071,1.776,2.34
	c0.369,0.096,0.766,0.116,1.151,0.116c15.683,0.005,31.365,0.005,47.048,0.004c0.185,0,0.37,0.002,0.553-0.016
	c1.446-0.141,2.369-1.11,2.375-2.56c0.014-3.653,0.013-7.307-0.001-10.96c-0.005-1.221-0.749-2.186-1.859-2.442
	c-0.354-0.082-0.732-0.082-1.1-0.082C44.127,38.382,36.305,38.383,28.481,38.383z M28.429,18.528c7.786,0,15.572,0,23.358,0
	c0.222,0,0.443,0.005,0.664-0.006c1.458-0.073,2.45-1.063,2.457-2.526c0.018-3.672,0.016-7.343,0-11.015
	c-0.005-1.17-0.721-2.119-1.778-2.394c-0.369-0.096-0.767-0.117-1.15-0.117C36.296,2.464,20.613,2.465,4.931,2.467
	c-0.239,0-0.48,0.008-0.717,0.039c-1.279,0.166-2.189,1.083-2.2,2.367C1.983,8.636,1.986,12.4,2.015,16.164
	c0.009,1.122,0.793,2.036,1.846,2.279c0.354,0.082,0.732,0.082,1.099,0.082C12.783,18.529,20.606,18.528,28.429,18.528z"/>
<path fill-rule="evenodd" clip-rule="evenodd" fill="#FFFFFF" d="M0.111,34.656c0.202,0.505,0.354,1.038,0.62,1.506
	c0.259,0.454,0.636,0.841,1.003,1.311c-0.82,0.704-1.352,1.637-1.624,2.72C0.111,38.347,0.111,36.501,0.111,34.656z"/>
<path fill-rule="evenodd" clip-rule="evenodd" d="M10.007,32.692c-2.321-0.02-4.225-1.925-4.229-4.233
	c-0.004-2.324,1.948-4.258,4.278-4.239c2.329,0.02,4.221,1.916,4.224,4.232C14.283,30.786,12.342,32.71,10.007,32.692z
	 M10.014,26.108c-1.298,0.008-2.358,1.079-2.344,2.366c0.015,1.299,1.076,2.336,2.38,2.328c1.298-0.009,2.354-1.075,2.342-2.365
	C12.381,27.145,11.314,26.101,10.014,26.108z"/>
<path fill-rule="evenodd" clip-rule="evenodd" d="M41.689,28.935c0.505,0.003,0.95,0.468,0.93,0.971
	c-0.02,0.495-0.44,0.895-0.94,0.892c-0.522-0.003-0.947-0.44-0.928-0.957C40.769,29.353,41.205,28.932,41.689,28.935z"/>
<path fill-rule="evenodd" clip-rule="evenodd" d="M42.639,26.981c0.035-0.521,0.489-0.904,1.019-0.861
	c0.498,0.041,0.879,0.478,0.848,0.975c-0.031,0.491-0.475,0.896-0.961,0.878C43.032,27.954,42.604,27.486,42.639,26.981z"/>
<path fill-rule="evenodd" clip-rule="evenodd" d="M39.778,27.973c-0.517-0.011-0.938-0.462-0.913-0.979
	c0.024-0.5,0.44-0.888,0.945-0.88c0.519,0.008,0.949,0.461,0.92,0.968C40.703,27.568,40.26,27.983,39.778,27.973z"/>
<path fill-rule="evenodd" clip-rule="evenodd" d="M45.438,28.938c0.487-0.016,0.927,0.391,0.954,0.882
	c0.029,0.524-0.377,0.963-0.903,0.976c-0.524,0.014-0.965-0.409-0.964-0.925C44.526,29.39,44.954,28.953,45.438,28.938z"/>
<path fill-rule="evenodd" clip-rule="evenodd" d="M38.843,29.893c-0.014,0.517-0.459,0.925-0.984,0.901
	c-0.507-0.024-0.891-0.434-0.881-0.941c0.01-0.519,0.462-0.941,0.975-0.912C38.441,28.97,38.855,29.413,38.843,29.893z"/>
<path fill-rule="evenodd" clip-rule="evenodd" d="M48.28,27.062c-0.012,0.495-0.433,0.91-0.925,0.913
	c-0.503,0.002-0.956-0.46-0.941-0.959c0.017-0.518,0.464-0.924,0.989-0.897C47.909,26.143,48.292,26.554,48.28,27.062z"/>
<path fill-rule="evenodd" clip-rule="evenodd" d="M50.168,29.858c0.007,0.532-0.404,0.944-0.938,0.939
	c-0.497-0.005-0.916-0.416-0.926-0.909c-0.01-0.502,0.445-0.957,0.95-0.949C49.749,28.947,50.162,29.361,50.168,29.858z"/>
<path fill-rule="evenodd" clip-rule="evenodd" d="M36.005,26.116c0.523-0.006,0.962,0.428,0.95,0.94
	c-0.011,0.48-0.449,0.913-0.929,0.919c-0.492,0.006-0.919-0.403-0.937-0.898C35.071,26.542,35.472,26.122,36.005,26.116z"/>
<path fill-rule="evenodd" clip-rule="evenodd" d="M34.132,30.796c-0.535,0.002-0.94-0.409-0.931-0.945
	c0.009-0.496,0.424-0.909,0.918-0.912c0.51-0.004,0.953,0.447,0.939,0.955C35.045,30.392,34.632,30.794,34.132,30.796z"/>
<path fill-rule="evenodd" clip-rule="evenodd" d="M33.166,27.029c0.006,0.513-0.438,0.955-0.947,0.943
	c-0.498-0.011-0.9-0.422-0.905-0.923c-0.004-0.515,0.375-0.914,0.885-0.932C32.728,26.098,33.161,26.506,33.166,27.029z"/>
<path fill-rule="evenodd" clip-rule="evenodd" d="M10.027,50.649c-2.331-0.005-4.29-1.975-4.249-4.273
	c0.042-2.327,1.945-4.208,4.257-4.206c2.34,0.002,4.273,1.947,4.244,4.271C14.251,48.759,12.336,50.655,10.027,50.649z
	 M10.056,48.754c1.299-0.014,2.353-1.083,2.337-2.371c-0.016-1.295-1.079-2.332-2.384-2.324c-1.292,0.009-2.358,1.089-2.339,2.371
	C7.689,47.727,8.757,48.768,10.056,48.754z"/>
<path fill-rule="evenodd" clip-rule="evenodd" d="M36.955,45.018c-0.018,0.503-0.501,0.944-0.994,0.908
	c-0.499-0.036-0.885-0.462-0.871-0.963c0.015-0.527,0.451-0.927,0.979-0.898C36.562,44.092,36.973,44.535,36.955,45.018z"/>
<path fill-rule="evenodd" clip-rule="evenodd" d="M43.556,44.063c0.517-0.01,0.958,0.425,0.952,0.938
	c-0.005,0.485-0.432,0.918-0.917,0.93c-0.498,0.012-0.96-0.447-0.954-0.949C42.642,44.493,43.063,44.073,43.556,44.063z"/>
<path fill-rule="evenodd" clip-rule="evenodd" d="M48.28,45.017c-0.014,0.491-0.441,0.913-0.927,0.914
	c-0.499,0-0.956-0.47-0.939-0.967c0.019-0.513,0.475-0.927,0.992-0.899C47.905,44.092,48.294,44.514,48.28,45.017z"/>
<path fill-rule="evenodd" clip-rule="evenodd" d="M40.734,45c-0.007,0.479-0.444,0.92-0.923,0.931
	c-0.504,0.012-0.953-0.438-0.947-0.95c0.006-0.521,0.444-0.937,0.968-0.917C40.322,44.083,40.74,44.517,40.734,45z"/>
<path fill-rule="evenodd" clip-rule="evenodd" d="M41.657,46.898c0.517-0.016,0.962,0.413,0.963,0.926
	c0,0.493-0.409,0.909-0.908,0.923c-0.527,0.014-0.961-0.402-0.961-0.922C40.752,47.33,41.16,46.913,41.657,46.898z"/>
<path fill-rule="evenodd" clip-rule="evenodd" d="M45.468,48.748c-0.501,0.003-0.922-0.396-0.942-0.891
	c-0.021-0.505,0.421-0.96,0.933-0.962c0.519-0.003,0.947,0.434,0.935,0.952C46.381,48.347,45.974,48.745,45.468,48.748z"/>
<path fill-rule="evenodd" clip-rule="evenodd" d="M38.844,47.814c0.007,0.49-0.402,0.914-0.9,0.932
	c-0.535,0.02-0.959-0.381-0.965-0.911c-0.005-0.505,0.385-0.914,0.889-0.935C38.385,46.878,38.836,47.301,38.844,47.814z"/>
<path fill-rule="evenodd" clip-rule="evenodd" d="M33.166,44.971c0.012,0.509-0.433,0.963-0.938,0.958
	c-0.493-0.005-0.906-0.419-0.916-0.918c-0.01-0.51,0.371-0.922,0.876-0.946C32.712,44.04,33.154,44.45,33.166,44.971z"/>
<path fill-rule="evenodd" clip-rule="evenodd" d="M50.167,47.833c-0.004,0.532-0.424,0.932-0.961,0.914
	c-0.498-0.017-0.908-0.44-0.902-0.931c0.006-0.486,0.43-0.911,0.919-0.921C49.747,46.885,50.171,47.305,50.167,47.833z"/>
<path fill-rule="evenodd" clip-rule="evenodd" d="M34.153,46.896c0.493,0.014,0.905,0.437,0.905,0.929
	c0.001,0.518-0.434,0.934-0.961,0.92c-0.532-0.015-0.922-0.439-0.894-0.976C33.23,47.268,33.65,46.881,34.153,46.896z"/>
<path fill-rule="evenodd" clip-rule="evenodd" d="M10.01,14.742c-2.315-0.014-4.225-1.924-4.232-4.232
	c-0.007-2.319,1.957-4.27,4.275-4.246c2.327,0.024,4.221,1.92,4.227,4.233C14.286,12.829,12.347,14.756,10.01,14.742z
	 M10.053,12.852c1.296-0.008,2.353-1.077,2.34-2.367c-0.012-1.292-1.083-2.339-2.381-2.328C8.713,8.167,7.654,9.239,7.67,10.525
	C7.688,11.821,8.751,12.86,10.053,12.852z"/>
<path fill-rule="evenodd" clip-rule="evenodd" d="M49.242,12.848c-0.495,0-0.92-0.408-0.938-0.9
	c-0.018-0.497,0.438-0.967,0.938-0.967c0.489,0,0.914,0.417,0.927,0.912C50.183,12.421,49.77,12.848,49.242,12.848z"/>
<path fill-rule="evenodd" clip-rule="evenodd" d="M42.622,11.913c0.005,0.487-0.41,0.917-0.902,0.935
	c-0.52,0.019-0.965-0.404-0.97-0.919c-0.004-0.509,0.45-0.96,0.954-0.947C42.184,10.993,42.617,11.433,42.622,11.913z"/>
<path fill-rule="evenodd" clip-rule="evenodd" d="M38.846,11.897c0.015,0.483-0.398,0.923-0.891,0.949
	c-0.525,0.027-0.965-0.378-0.977-0.902c-0.012-0.517,0.423-0.967,0.932-0.963C38.386,10.983,38.831,11.419,38.846,11.897z"/>
<path fill-rule="evenodd" clip-rule="evenodd" d="M40.732,9.099c-0.009,0.513-0.459,0.934-0.977,0.913
	c-0.502-0.021-0.897-0.436-0.892-0.936c0.006-0.523,0.438-0.929,0.969-0.91C40.332,8.185,40.739,8.607,40.732,9.099z"/>
<path fill-rule="evenodd" clip-rule="evenodd" d="M44.506,9.082c0.003,0.515-0.438,0.946-0.954,0.934
	c-0.494-0.012-0.91-0.432-0.914-0.922c-0.005-0.515,0.433-0.939,0.957-0.928C44.099,8.176,44.504,8.583,44.506,9.082z"/>
<path fill-rule="evenodd" clip-rule="evenodd" d="M45.437,12.848c-0.492-0.014-0.912-0.44-0.913-0.927
	c0-0.501,0.469-0.957,0.966-0.939c0.489,0.018,0.904,0.448,0.904,0.938C46.394,12.438,45.957,12.862,45.437,12.848z"/>
<path fill-rule="evenodd" clip-rule="evenodd" d="M34.132,12.848c-0.528,0.003-0.941-0.417-0.931-0.948
	c0.009-0.497,0.426-0.913,0.917-0.917c0.502-0.004,0.954,0.456,0.941,0.959C35.047,12.435,34.628,12.845,34.132,12.848z"/>
<path fill-rule="evenodd" clip-rule="evenodd" d="M48.278,9.085c0.001,0.524-0.429,0.945-0.951,0.931
	c-0.492-0.014-0.911-0.438-0.913-0.926c-0.003-0.516,0.437-0.936,0.963-0.923C47.888,8.179,48.277,8.576,48.278,9.085z"/>
<path fill-rule="evenodd" clip-rule="evenodd" d="M33.166,9.085c0,0.519-0.435,0.941-0.955,0.926
	c-0.506-0.014-0.896-0.415-0.896-0.923c-0.001-0.533,0.413-0.937,0.947-0.924C32.763,8.177,33.165,8.587,33.166,9.085z"/>
<path fill-rule="evenodd" clip-rule="evenodd" d="M36.028,10.016c-0.525,0.006-0.945-0.416-0.938-0.944
	c0.007-0.511,0.398-0.899,0.913-0.906c0.525-0.007,0.961,0.422,0.95,0.937C36.943,9.59,36.519,10.009,36.028,10.016z"/>
</svg>
