<?xml version="1.0" encoding="utf-8"?>
<!-- Generator: Adobe Illustrator 16.0.3, SVG Export Plug-In . SVG Version: 6.00 Build 0)  -->
<!DOCTYPE svg PUBLIC "-//W3C//DTD SVG 1.1//EN" "http://www.w3.org/Graphics/SVG/1.1/DTD/svg11.dtd">
<svg version="1.1" id="Capa_1" xmlns="http://www.w3.org/2000/svg" xmlns:xlink="http://www.w3.org/1999/xlink" x="0px" y="0px"
	 width="56.69px" height="56.69px" viewBox="0 0 56.69 56.69" enable-background="new 0 0 56.69 56.69" xml:space="preserve">
<path fill-rule="evenodd" clip-rule="evenodd" d="M56.801,26.795c0,1.107,0,2.214,0,3.322c-0.033,0.179-0.076,0.355-0.1,0.535
	c-0.128,0.986-0.199,1.982-0.386,2.958c-1.103,5.77-3.71,10.756-7.88,14.905c-4.24,4.221-9.318,6.837-15.211,7.86
	c-0.994,0.173-1.998,0.285-2.997,0.425c-1.107,0-2.214,0-3.321,0c-0.217-0.031-0.433-0.075-0.65-0.094
	c-2.694-0.226-5.316-0.783-7.84-1.757c-5.279-2.035-9.611-5.327-12.927-9.911c-2.326-3.215-3.957-6.765-4.723-10.673
	c-0.29-1.477-0.44-2.979-0.654-4.471c0-1.033,0-2.067,0-3.1c0.033-0.178,0.067-0.355,0.098-0.533
	c0.306-1.775,0.474-3.588,0.943-5.319c1.319-4.861,3.805-9.084,7.391-12.629c4.238-4.19,9.322-6.77,15.192-7.78
	c1.158-0.199,2.335-0.285,3.503-0.423c0.959,0,1.919,0,2.879,0c0.197,0.034,0.395,0.074,0.593,0.102
	c1.201,0.172,2.418,0.275,3.604,0.524c5.287,1.113,9.877,3.568,13.762,7.32c4.416,4.264,7.2,9.414,8.279,15.465
	C56.547,24.605,56.654,25.704,56.801,26.795z M5.487,15.435c-2.59,3.495-4.519,13.729-3.091,16.866
	c1.746-4.077,4.618-7.042,8.607-8.935c-0.076-0.222-0.131-0.395-0.193-0.564c-0.063-0.173-0.139-0.342-0.197-0.516
	c-0.198-0.591-0.01-1.097,0.478-1.305c0.509-0.216,1.021,0.03,1.282,0.633c0.146,0.335,0.27,0.68,0.422,1.066
	c3.802-1.187,7.563-1.095,11.29,0.284c0.224-0.502,0.41-0.942,0.616-1.372c0.288-0.602,0.793-0.829,1.297-0.601
	c0.505,0.228,0.678,0.751,0.429,1.362c-0.186,0.455-0.395,0.901-0.606,1.38c3.48,1.857,6.028,4.537,7.703,8.069
	c0.21-0.074,0.381-0.133,0.551-0.195c0.189-0.07,0.376-0.152,0.568-0.215c0.599-0.194,1.1,0.002,1.295,0.502
	c0.197,0.503-0.031,0.986-0.609,1.247c-0.35,0.157-0.711,0.29-1.103,0.448c1.203,3.806,1.088,7.566-0.243,11.293
	c0.48,0.218,0.902,0.4,1.316,0.599c0.639,0.307,0.862,0.804,0.61,1.332c-0.237,0.497-0.742,0.645-1.377,0.386
	c-0.438-0.18-0.87-0.377-1.345-0.584c-0.93,1.801-2.115,3.367-3.578,4.715c-1.468,1.352-3.141,2.396-5.099,3.238
	c0.255,0.06,0.358,0.093,0.464,0.106c4.81,0.617,9.436-0.049,13.92-1.894c1.11-0.457,1.865-1.165,2.426-2.184
	c0.906-1.646,0.144-3.45-1.686-3.872c-0.592-0.137-1.201-0.194-1.797-0.313c-0.606-0.119-0.857-0.417-0.864-1.028
	c-0.013-1.015-0.011-2.03-0.001-3.045c0.006-0.647,0.236-0.924,0.885-1.074c0.484-0.111,0.977-0.189,1.463-0.295
	c1.997-0.436,2.793-2.392,1.659-4.091c-0.297-0.444-0.637-0.859-0.941-1.299c-0.391-0.563-0.373-0.95,0.096-1.436
	c0.692-0.717,1.398-1.421,2.112-2.116c0.484-0.472,0.867-0.501,1.438-0.129c0.557,0.362,1.093,0.756,1.653,1.109
	c1.707,1.076,3.626,0.267,4.044-1.701c0.131-0.613,0.231-1.231,0.355-1.846c0.149-0.746,0.457-0.999,1.217-1.005
	c0.646-0.005,1.292-0.013,1.938,0.001c0.689,0.016,1.429-0.187,2.024,0.556c-0.008-2.89-0.325-5.585-1.16-8.215
	c-0.682,1.058-1.338,2.076-2.018,3.13c0.417,0.545,1.463,1.084,0.595,1.949c-0.869,0.866-1.402-0.185-2.028-0.653
	c-2.213,1.879-4.776,2.938-7.678,3.197c0,0.367,0.016,0.662-0.004,0.955c-0.037,0.567-0.438,0.963-0.947,0.958
	c-0.512-0.005-0.896-0.401-0.927-0.977c-0.017-0.306-0.003-0.613-0.003-0.953c-2.943-0.244-5.484-1.313-7.787-3.253
	c-0.148,0.198-0.263,0.395-0.418,0.55c-0.56,0.561-1.121,0.623-1.541,0.19c-0.404-0.417-0.345-0.969,0.192-1.501
	c0.167-0.166,0.392-0.274,0.595-0.412c-1.982-2.346-3.037-4.895-3.282-7.775c-0.785-0.119-1.908,0.238-1.892-0.997
	c0.016-1.186,1.101-0.853,1.886-0.953c0.245-2.889,1.326-5.443,3.269-7.75c-0.276-0.228-0.548-0.402-0.754-0.633
	c-0.386-0.435-0.361-0.98,0.016-1.337c0.356-0.337,0.878-0.337,1.301,0.021c0.248,0.209,0.476,0.444,0.66,0.618
	c1.072-0.693,2.092-1.352,3.133-2.025c-3.676-1.104-7.377-1.38-11.146-0.921c-0.587,0.072-0.903,0.312-1.04,0.856
	c-0.242,0.968,0.282,1.941,1.239,2.231c0.457,0.139,0.935,0.207,1.401,0.313c0.681,0.156,0.911,0.415,0.927,1.101
	c0.017,0.756,0.015,1.513,0.001,2.27c-0.013,0.754-0.292,1.056-1.043,1.176c-0.4,0.064-0.807,0.101-1.201,0.19
	c-1.416,0.323-1.975,1.664-1.214,2.906c0.221,0.361,0.483,0.697,0.707,1.057c0.288,0.463,0.262,0.913-0.129,1.311
	c-0.569,0.579-1.138,1.158-1.724,1.72c-0.463,0.445-0.851,0.46-1.392,0.099c-0.321-0.215-0.623-0.466-0.96-0.649
	c-1.036-0.562-2.288-0.043-2.62,1.085c-0.108,0.369-0.147,0.758-0.219,1.138c-0.117,0.616-0.432,0.9-1.058,0.91
	c-0.793,0.013-1.587,0.012-2.38,0.001c-0.662-0.009-0.953-0.268-1.094-0.935c-0.096-0.45-0.16-0.91-0.292-1.349
	c-0.358-1.19-1.634-1.696-2.703-1.067c-0.427,0.251-0.812,0.576-1.222,0.857c-0.557,0.381-0.939,0.348-1.436-0.113
	C6.84,16.696,6.158,16.059,5.487,15.435z M33.185,38.424c-0.071-0.598-0.125-1.635-0.328-2.643
	c-1.561-7.747-8.997-12.973-16.871-11.885c-6.223,0.859-11.16,5.35-12.623,11.463c-0.142,0.592-0.131,1.133,0.078,1.719
	c0.771,2.166,1.784,4.205,3.078,6.103c3.431,5.032,8.035,8.517,13.817,10.437c0.198,0.066,0.438,0.078,0.644,0.038
	C28.077,52.274,33.155,46.11,33.185,38.424z M41.673,26.568c5.016,0.023,9.595-3.447,10.908-8.286
	c0.063-0.236,0.031-0.549-0.072-0.772c-2.763-5.956-7.124-10.325-13.078-13.092c-0.238-0.111-0.573-0.147-0.824-0.079
	c-4.604,1.259-7.998,5.499-8.243,10.261C30.028,21.088,35.18,26.538,41.673,26.568z M47.617,46.781
	c-0.176-0.298-0.281-0.471-0.381-0.646c-0.772-1.373-1.029-2.835-0.673-4.374c0.688-2.97,3.265-4.913,6.324-4.765
	c0.446,0.021,0.666-0.065,0.77-0.525c0.185-0.825,0.449-1.633,0.634-2.459c0.048-0.214-0.046-0.481-0.133-0.7
	c-0.251-0.626-0.558-1.231-0.79-1.863c-0.124-0.339-0.142-0.716-0.21-1.086c-0.566,0-1.098,0-1.657,0
	c-0.081,0.408-0.164,0.802-0.237,1.198c-0.627,3.376-4.133,4.884-7.003,3.01c-0.368-0.241-0.732-0.489-1.08-0.722
	c-0.422,0.405-0.815,0.784-1.229,1.181c1.279,1.488,1.879,3.122,1.133,5.023c-0.741,1.89-2.281,2.701-4.186,2.925
	c0,0.598,0,1.14,0,1.71c1.41,0.135,2.681,0.511,3.614,1.616c0.927,1.098,1.247,2.369,1.032,3.792
	c0.043,0.028,0.085,0.057,0.127,0.084C44.979,49.054,46.285,47.928,47.617,46.781z M18.224,4.017
	c1.723,1.66,2.192,3.513,1.283,5.581c-0.801,1.822-2.319,2.787-4.289,2.771c-2.277-0.018-3.757-1.283-4.561-3.485
	c-0.621,0.63-1.188,1.227-1.781,1.799c-0.312,0.3-0.387,0.603-0.303,1.034c0.076,0.385,0.076,0.825-0.037,1.196
	c-0.199,0.657-0.508,1.281-0.728,1.815c0.203,0.252,0.406,0.505,0.612,0.762c0.183-0.128,0.346-0.248,0.513-0.361
	c2.276-1.545,5.203-0.443,5.82,2.237c0.142,0.618,0.408,0.773,0.955,0.688c0.071-0.011,0.143-0.023,0.229-0.037
	c0.244-1.435,0.978-2.507,2.344-3.057c1.355-0.546,2.631-0.294,3.765,0.527c0.275-0.245,0.507-0.452,0.761-0.677
	c-0.965-1.279-1.325-2.632-0.67-4.119c0.652-1.481,1.885-2.146,3.417-2.3c0.153-0.978,0.15-0.969-0.701-1.194
	c-1.492-0.394-2.423-1.36-2.773-2.849c-0.111-0.473-0.067-0.983-0.1-1.569C20.751,3.184,19.537,3.584,18.224,4.017z M18.054,7.491
	c-0.031-0.888-0.487-1.731-1.432-2.256c-0.196-0.109-0.557-0.122-0.742-0.012c-1.075,0.639-2.131,1.311-3.164,2.016
	c-0.174,0.119-0.301,0.455-0.287,0.68c0.093,1.464,1.414,2.634,2.864,2.585C16.826,10.452,18.04,9.209,18.054,7.491z M52.762,38.857
	c-1.69,0.016-2.96,0.653-3.799,2.006c-0.86,1.388-0.888,2.838-0.096,4.356C50.469,43.281,51.725,41.205,52.762,38.857z"/>
<path fill-rule="evenodd" clip-rule="evenodd" d="M18.063,31.303c4.187,0.001,7.571,3.398,7.546,7.575
	c-0.025,4.171-3.383,7.518-7.547,7.52c-4.175,0.003-7.564-3.399-7.548-7.576C10.529,34.661,13.902,31.301,18.063,31.303z
	 M23.719,38.874c0.014-3.122-2.523-5.675-5.647-5.681c-3.09-0.007-5.653,2.526-5.672,5.605c-0.02,3.111,2.531,5.702,5.625,5.714
	C21.147,44.524,23.706,41.991,23.719,38.874z"/>
<path fill-rule="evenodd" clip-rule="evenodd" d="M45.446,15.103c0.128,2.023-1.539,3.791-3.678,3.897
	c-2,0.1-3.732-1.551-3.855-3.674c-0.115-1.994,1.537-3.739,3.659-3.863C43.578,11.346,45.312,12.975,45.446,15.103z M43.564,15.226
	c-0.001-1.027-0.826-1.862-1.855-1.876c-1.045-0.015-1.912,0.838-1.91,1.881c0.001,1.02,0.836,1.864,1.859,1.881
	C42.699,17.129,43.565,16.272,43.564,15.226z"/>
<path fill-rule="evenodd" clip-rule="evenodd" d="M18.061,35.084c2.077-0.001,3.757,1.671,3.767,3.748
	c0.01,2.085-1.713,3.81-3.79,3.791c-2.058-0.018-3.76-1.736-3.75-3.786C14.297,36.773,15.993,35.085,18.061,35.084z M19.938,38.829
	c-0.008-1.032-0.834-1.852-1.869-1.854c-1.049-0.003-1.907,0.856-1.895,1.896c0.012,1.013,0.869,1.862,1.881,1.867
	C19.097,40.742,19.947,39.88,19.938,38.829z"/>
</svg>
