<?xml version="1.0" encoding="utf-8"?>
<!-- Generator: Adobe Illustrator 16.0.3, SVG Export Plug-In . SVG Version: 6.00 Build 0)  -->
<!DOCTYPE svg PUBLIC "-//W3C//DTD SVG 1.1//EN" "http://www.w3.org/Graphics/SVG/1.1/DTD/svg11.dtd">
<svg version="1.1" id="Capa_1" xmlns="http://www.w3.org/2000/svg" xmlns:xlink="http://www.w3.org/1999/xlink" x="0px" y="0px"
	 width="56.69px" height="56.69px" viewBox="0 0 56.69 56.69" enable-background="new 0 0 56.69 56.69" xml:space="preserve">
<path fill-rule="evenodd" clip-rule="evenodd" d="M24.583,0.31c2.648,0,5.296,0,7.944,0c0.022,0.027,0.04,0.068,0.068,0.079
	c1.686,0.669,2.24,1.485,2.241,3.304c0,1.507-0.009,3.014,0.007,4.521c0.003,0.344,0.026,0.71,0.146,1.027
	c0.524,1.395,2.255,1.703,3.395,0.598c1.161-1.126,2.289-2.286,3.437-3.426c1.393-1.385,3.137-1.389,4.53-0.005
	c1.461,1.451,2.917,2.905,4.367,4.367c1.407,1.419,1.396,3.091-0.021,4.515c-1.103,1.107-2.216,2.203-3.311,3.318
	c-0.24,0.245-0.478,0.524-0.618,0.832c-0.615,1.351,0.36,2.802,1.907,2.826c1.691,0.025,3.382-0.002,5.073,0.01
	c1.27,0.01,2.219,0.566,2.79,1.719c0.095,0.192,0.175,0.391,0.262,0.587c0,2.648,0,5.296,0,7.944
	c-0.027,0.022-0.067,0.04-0.079,0.068c-0.669,1.686-1.484,2.24-3.304,2.241c-1.508,0-3.015-0.003-4.522,0.001
	c-1.132,0.002-1.819,0.406-2.16,1.283c-0.367,0.948-0.039,1.711,0.645,2.386c1.111,1.099,2.215,2.205,3.316,3.313
	c1.418,1.425,1.429,3.097,0.021,4.516c-1.45,1.461-2.908,2.915-4.369,4.366c-1.395,1.385-3.136,1.381-4.529-0.005
	c-1.107-1.102-2.203-2.216-3.318-3.31c-0.245-0.241-0.524-0.478-0.833-0.618c-1.351-0.615-2.801,0.359-2.824,1.907
	c-0.025,1.691,0.002,3.383-0.011,5.073c-0.009,1.27-0.565,2.219-1.719,2.79c-0.192,0.095-0.392,0.175-0.587,0.262
	c-2.647,0-5.296,0-7.944,0c-0.022-0.027-0.04-0.067-0.068-0.079c-1.686-0.669-2.24-1.484-2.241-3.304
	c0-1.507,0.009-3.015-0.006-4.521c-0.003-0.345-0.027-0.711-0.146-1.028c-0.524-1.395-2.258-1.702-3.396-0.599
	c-1.161,1.127-2.288,2.287-3.435,3.428c-1.397,1.39-3.131,1.395-4.529,0.006c-1.461-1.45-2.917-2.905-4.367-4.367
	c-1.408-1.42-1.398-3.091,0.019-4.516c1.102-1.107,2.216-2.203,3.31-3.318c0.241-0.245,0.478-0.523,0.619-0.832
	c0.616-1.35-0.359-2.803-1.907-2.826c-1.69-0.025-3.382,0.002-5.073-0.011c-1.269-0.009-2.218-0.565-2.79-1.719
	c-0.095-0.191-0.175-0.391-0.262-0.587c0-2.647,0-5.296,0-7.944c0.027-0.022,0.068-0.04,0.079-0.069
	c0.669-1.685,1.485-2.24,3.304-2.241c1.507,0,3.015,0.009,4.521-0.006c0.344-0.003,0.711-0.027,1.028-0.146
	c1.395-0.524,1.703-2.258,0.599-3.396c-1.126-1.161-2.287-2.289-3.428-3.435c-1.417-1.424-1.428-3.096-0.02-4.515
	c1.45-1.462,2.906-2.917,4.367-4.368c1.393-1.383,3.138-1.378,4.531,0.006c1.108,1.102,2.205,2.215,3.32,3.309
	c0.246,0.241,0.523,0.479,0.832,0.619c1.354,0.619,2.8-0.354,2.824-1.907c0.025-1.69-0.002-3.382,0.01-5.073
	c0.01-1.269,0.566-2.218,1.719-2.79C24.188,0.477,24.388,0.396,24.583,0.31z M28.524,54.706c1.029,0,2.06,0.002,3.089-0.001
	c0.854-0.003,1.128-0.271,1.13-1.115c0.004-1.617-0.045-3.237,0.023-4.853c0.029-0.696,0.164-1.448,0.477-2.061
	c1.269-2.49,4.515-2.928,6.585-0.926c1.177,1.137,2.316,2.312,3.477,3.466c0.606,0.604,0.972,0.603,1.587-0.011
	c1.445-1.439,2.89-2.882,4.329-4.329c0.602-0.604,0.596-0.97-0.019-1.587c-1.128-1.133-2.265-2.259-3.391-3.395
	c-1.306-1.317-1.687-2.855-1.009-4.597c0.637-1.636,2.1-2.547,4.007-2.554c1.6-0.005,3.199,0.002,4.799-0.002
	c0.815-0.002,1.095-0.281,1.097-1.093c0.003-2.041,0.002-4.082,0-6.123c-0.001-0.895-0.258-1.157-1.141-1.159
	c-1.637-0.003-3.274,0.045-4.908-0.024c-0.676-0.029-1.406-0.18-2.002-0.488c-2.48-1.285-2.897-4.518-0.887-6.592
	c1.139-1.175,2.313-2.315,3.467-3.476c0.579-0.583,0.577-0.957-0.009-1.547c-1.452-1.46-2.907-2.917-4.366-4.37
	c-0.582-0.578-0.958-0.572-1.549,0.015c-1.147,1.141-2.282,2.294-3.435,3.429c-1.322,1.302-2.88,1.696-4.6,0.973
	c-1.716-0.722-2.534-2.099-2.532-3.961c0.002-1.599,0.003-3.199-0.001-4.798c-0.002-0.852-0.272-1.123-1.121-1.124
	c-2.041-0.003-4.081-0.002-6.122,0c-0.875,0.001-1.132,0.267-1.133,1.168c-0.002,1.599,0.045,3.201-0.022,4.797
	c-0.03,0.696-0.164,1.449-0.476,2.062c-1.267,2.489-4.512,2.927-6.584,0.926c-1.177-1.136-2.317-2.311-3.477-3.465
	C13.2,7.29,12.834,7.292,12.22,7.904c-1.446,1.44-2.89,2.882-4.329,4.329c-0.603,0.605-0.596,0.971,0.018,1.587
	c1.128,1.133,2.264,2.259,3.391,3.395c1.306,1.317,1.687,2.855,1.009,4.597c-0.636,1.635-2.1,2.547-4.006,2.553
	c-1.6,0.005-3.199-0.002-4.798,0.002c-0.815,0.002-1.095,0.281-1.097,1.093c-0.003,2.022-0.002,4.044-0.001,6.067
	c0,0.969,0.243,1.216,1.195,1.217c1.599,0.002,3.201-0.047,4.797,0.022c0.695,0.031,1.447,0.173,2.058,0.488
	c2.482,1.281,2.898,4.517,0.888,6.591c-1.139,1.175-2.313,2.315-3.466,3.476c-0.579,0.583-0.578,0.957,0.008,1.547
	c1.452,1.461,2.907,2.918,4.366,4.37c0.582,0.578,0.958,0.571,1.548-0.016c1.134-1.127,2.263-2.261,3.395-3.392
	c0.899-0.898,1.967-1.445,3.256-1.324c2.454,0.229,3.908,1.867,3.915,4.333c0.005,1.618-0.004,3.236,0.004,4.854
	c0.003,0.71,0.303,1.005,1.011,1.01C26.429,54.711,27.477,54.706,28.524,54.706z"/>
<path fill-rule="evenodd" clip-rule="evenodd" d="M28.548,19.152c5.19-0.006,9.39,4.182,9.41,9.382
	c0.019,5.205-4.219,9.442-9.423,9.423c-5.2-0.02-9.388-4.22-9.382-9.41C19.159,23.353,23.353,19.159,28.548,19.152z M35.865,28.579
	c0.019-4.047-3.245-7.326-7.3-7.334c-4.029-0.008-7.279,3.215-7.32,7.258c-0.041,4.039,3.212,7.332,7.272,7.361
	C32.56,35.894,35.847,32.635,35.865,28.579z"/>
</svg>
