<?xml version="1.0" encoding="utf-8"?>
<!-- Generator: Adobe Illustrator 16.0.3, SVG Export Plug-In . SVG Version: 6.00 Build 0)  -->
<!DOCTYPE svg PUBLIC "-//W3C//DTD SVG 1.1//EN" "http://www.w3.org/Graphics/SVG/1.1/DTD/svg11.dtd">
<svg version="1.1" id="Capa_1" xmlns="http://www.w3.org/2000/svg" xmlns:xlink="http://www.w3.org/1999/xlink" x="0px" y="0px"
	 width="56.69px" height="56.69px" viewBox="0 0 56.69 56.69" enable-background="new 0 0 56.69 56.69" xml:space="preserve">
<path fill-rule="evenodd" clip-rule="evenodd" d="M7.482,56.8c0-13.696,0-27.393,0-41.165c0.235,0,0.43,0,0.624,0
	c4.45,0,8.9,0,13.35,0c0.147,0,0.295-0.005,0.441,0.01c0.523,0.054,0.908,0.454,0.91,0.938s-0.385,0.891-0.905,0.939
	c-0.183,0.018-0.367,0.011-0.551,0.011c-3.733,0-7.465,0-11.198,0c-0.22,0-0.439,0-0.705,0c0,12.45,0,24.867,0,37.323
	c12.731,0,25.447,0,38.213,0c0-12.414,0-24.831,0-37.323c-0.22,0-0.433,0-0.646,0c-3.751,0-7.502,0-11.253,0
	c-0.185,0-0.369,0.006-0.552-0.011c-0.523-0.049-0.905-0.45-0.905-0.937c0-0.487,0.38-0.884,0.906-0.94
	c0.109-0.012,0.221-0.009,0.33-0.009c4.542,0,9.084,0,13.626,0c0.127,0,0.254,0.012,0.462,0.023c0,13.721,0,27.43,0,41.14
	C35.58,56.8,21.531,56.8,7.482,56.8z"/>
<path fill-rule="evenodd" clip-rule="evenodd" d="M28.886,0.31c0.566,0.545,1.141,1.081,1.697,1.636
	c2.63,2.623,5.255,5.25,7.879,7.879c0.168,0.168,0.342,0.342,0.46,0.544c0.232,0.395,0.17,0.791-0.147,1.11
	c-0.316,0.317-0.709,0.399-1.108,0.163c-0.201-0.119-0.376-0.292-0.544-0.46c-2.356-2.351-4.708-4.705-7.063-7.058
	c-0.14-0.14-0.285-0.273-0.536-0.512c0,0.327,0,0.535,0,0.743c0,10.903,0.001,21.806-0.003,32.709c0,0.273-0.009,0.555-0.069,0.819
	c-0.108,0.474-0.449,0.716-0.923,0.704c-0.448-0.011-0.772-0.25-0.869-0.703c-0.057-0.267-0.069-0.546-0.069-0.819
	c-0.003-10.885-0.002-21.77-0.002-32.654c0-0.219,0-0.438,0-0.798c-0.224,0.212-0.364,0.338-0.497,0.471
	c-2.341,2.339-4.681,4.68-7.021,7.02c-0.078,0.078-0.155,0.157-0.234,0.234c-0.554,0.539-1.125,0.607-1.544,0.185
	c-0.424-0.427-0.357-0.984,0.202-1.543c3.053-3.057,6.108-6.113,9.165-9.167c0.179-0.178,0.377-0.336,0.567-0.503
	C28.445,0.31,28.666,0.31,28.886,0.31z"/>
</svg>
