<?xml version="1.0" encoding="utf-8"?>
<!-- Generator: Adobe Illustrator 16.0.3, SVG Export Plug-In . SVG Version: 6.00 Build 0)  -->
<!DOCTYPE svg PUBLIC "-//W3C//DTD SVG 1.1//EN" "http://www.w3.org/Graphics/SVG/1.1/DTD/svg11.dtd">
<svg version="1.1" id="Capa_1" xmlns="http://www.w3.org/2000/svg" xmlns:xlink="http://www.w3.org/1999/xlink" x="0px" y="0px"
	 width="56.69px" height="56.69px" viewBox="0 0 56.69 56.69" enable-background="new 0 0 56.69 56.69" xml:space="preserve">
<path fill-rule="evenodd" clip-rule="evenodd" d="M56.801,28.745c-2.769,2.751-5.484,5.558-8.318,8.24
	c-4.224,3.997-9.255,6.465-15,7.374c-7.893,1.25-15.147-0.414-21.667-5.052c-1.367-0.972-2.628-2.113-3.837-3.28
	c-2.387-2.303-4.703-4.68-7.051-7.022c-0.138-0.138-0.304-0.247-0.457-0.37c0-0.037,0-0.073,0-0.11
	c2.769-2.751,5.485-5.558,8.318-8.239c4.224-3.998,9.255-6.464,15-7.375c7.872-1.248,15.111,0.409,21.624,5.019
	c1.383,0.979,2.657,2.135,3.881,3.314c2.388,2.302,4.703,4.679,7.051,7.022c0.139,0.138,0.304,0.248,0.457,0.37
	C56.801,28.671,56.801,28.708,56.801,28.745z M54.18,28.806c-2.255-2.256-4.368-4.395-6.508-6.506
	c-4.489-4.431-9.875-7.065-16.144-7.714c-7.85-0.812-14.87,1.314-20.813,6.543c-2.611,2.297-4.976,4.873-7.451,7.324
	c-0.023,0.022-0.025,0.066-0.044,0.122c0.065,0.073,0.134,0.155,0.21,0.231c2.048,2.049,4.083,4.111,6.148,6.144
	c4.668,4.592,10.26,7.248,16.792,7.789c7.412,0.614,14.071-1.404,19.742-6.228c2.619-2.228,4.951-4.792,7.418-7.198
	C53.713,29.135,53.933,28.997,54.18,28.806z"/>
<path fill-rule="evenodd" clip-rule="evenodd" d="M28.615,16.231c6.817,0.012,12.376,5.597,12.352,12.408
	c-0.024,6.81-5.567,12.336-12.365,12.327c-6.799-0.01-12.326-5.522-12.369-12.339C16.19,21.865,21.83,16.22,28.615,16.231z
	 M28.624,18.151c-5.763-0.018-10.448,4.654-10.468,10.439c-0.02,5.752,4.677,10.47,10.439,10.485
	c5.736,0.016,10.472-4.708,10.485-10.455C39.092,22.868,34.398,18.169,28.624,18.151z"/>
<path fill-rule="evenodd" clip-rule="evenodd" d="M27.263,21.02c0.505-0.049,0.972,0,1.232,0.511
	c0.34,0.668-0.132,1.318-1.024,1.379c-1.473,0.102-2.673,0.706-3.582,1.873c-0.566,0.727-0.871,1.559-0.957,2.474
	c-0.016,0.164-0.017,0.331-0.047,0.492c-0.104,0.534-0.51,0.878-0.987,0.847c-0.517-0.034-0.881-0.428-0.882-1.004
	c-0.002-1.521,0.482-2.882,1.431-4.064C23.681,21.987,25.297,21.159,27.263,21.02z"/>
</svg>
