<?xml version="1.0" encoding="utf-8"?>
<!-- Generator: Adobe Illustrator 16.0.3, SVG Export Plug-In . SVG Version: 6.00 Build 0)  -->
<!DOCTYPE svg PUBLIC "-//W3C//DTD SVG 1.1//EN" "http://www.w3.org/Graphics/SVG/1.1/DTD/svg11.dtd">
<svg version="1.1" id="Capa_1" xmlns="http://www.w3.org/2000/svg" xmlns:xlink="http://www.w3.org/1999/xlink" x="0px" y="0px"
	 width="56.69px" height="56.69px" viewBox="0 0 56.69 56.69" fill="#233240" enable-background="new 0 0 56.69 56.69" xml:space="preserve">
<path fill-rule="evenodd" clip-rule="evenodd" d="M0.111,50.046c0.29-0.887,0.508-1.806,0.886-2.653
	c0.529-1.187,1.422-2.103,2.521-2.798c2.166-1.369,4.327-2.748,6.517-4.079c0.965-0.588,1.37-1.358,1.4-2.497
	c0.034-1.316-0.155-2.426-1.112-3.454c-1.111-1.194-1.787-2.693-2.267-4.265c-0.066-0.217-0.223-0.422-0.38-0.592
	c-0.561-0.606-0.903-1.31-0.92-2.135c-0.024-1.199-0.079-2.404,0.02-3.595c0.049-0.59,0.416-1.153,0.632-1.73
	C7.5,22,7.643,21.749,7.65,21.496c0.029-0.978,0.026-1.956,0.009-2.934c-0.071-4.212,2.734-8.45,7.915-9.255
	c2.698-0.419,5.329-0.25,7.85,0.892c0.095,0.043,0.202,0.062,0.157,0.048c0.465-1.16,0.787-2.352,1.387-3.38
	c1.307-2.24,3.445-3.398,5.901-3.936c3.165-0.692,6.334-0.654,9.46,0.289c3.853,1.162,6.178,4.406,6.087,8.433
	c-0.037,1.66-0.018,3.321-0.006,4.982c0.002,0.204,0.069,0.442,0.188,0.604c0.549,0.748,0.755,1.59,0.762,2.495
	c0.008,1.107,0.006,2.214,0,3.321c-0.007,1.521-0.623,2.7-1.948,3.495c-0.169,0.102-0.316,0.307-0.388,0.496
	c-0.77,2.071-1.802,3.995-3.141,5.754c-0.104,0.137-0.188,0.328-0.191,0.496c-0.016,0.978-0.02,1.956,0.003,2.934
	c0.026,1.156,0.654,1.904,1.662,2.403c2.823,1.399,5.638,2.815,8.457,4.222c2.232,1.113,3.823,2.795,4.575,5.202
	c0.18,0.576,0.277,1.178,0.412,1.767c0,1.551,0,3.101,0,4.65c-0.201-0.009-0.403-0.027-0.605-0.027
	c-18.493-0.001-36.985-0.001-55.478,0c-0.202,0-0.404,0.019-0.606,0.027C0.111,53,0.111,51.523,0.111,50.046z M54.954,52.519
	c-0.044-0.997-0.014-1.944-0.141-2.87c-0.279-2.037-1.332-3.617-3.096-4.673c-0.899-0.539-1.856-0.98-2.795-1.452
	c-2.156-1.083-4.315-2.163-6.478-3.234c-1.647-0.817-2.575-2.119-2.641-3.969c-0.044-1.234-0.021-2.472-0.007-3.708
	c0.001-0.164,0.094-0.354,0.202-0.486c1.589-1.933,2.724-4.11,3.498-6.481c0.101-0.307,0.237-0.487,0.563-0.589
	c0.863-0.271,1.365-0.882,1.388-1.791c0.032-1.291,0.055-2.585-0.023-3.872c-0.026-0.435-0.373-0.849-0.566-1.275
	c-0.12-0.266-0.325-0.537-0.328-0.807c-0.022-1.974-0.009-3.948,0.003-5.923c0.017-2.8-1.489-5.114-4.107-6.102
	c-3.345-1.262-6.771-1.269-10.148-0.209c-3.051,0.957-4.735,3.376-4.69,6.312c0.031,1.992,0.031,3.985,0.015,5.978
	c-0.002,0.241-0.132,0.528-0.296,0.709c-0.405,0.447-0.632,0.934-0.625,1.543c0.013,1.181,0.007,2.362,0.002,3.542
	c-0.002,0.676,0.283,1.187,0.788,1.631c0.239,0.21,0.451,0.525,0.53,0.831c0.619,2.371,1.694,4.509,3.159,6.465
	c0.141,0.188,0.228,0.462,0.233,0.698c0.025,1.014,0.003,2.029,0.013,3.044c0.018,1.979-0.84,3.414-2.59,4.352
	c-2.6,1.393-5.184,2.813-7.768,4.233c-0.451,0.248-0.897,0.519-1.3,0.837c-2.375,1.876-2.719,4.452-2.464,7.266
	C28.478,52.519,41.662,52.519,54.954,52.519z M2.034,52.488c0.066,0.032,0.083,0.047,0.099,0.047
	c3.616,0.007,7.232,0.017,10.849,0.004c0.118,0,0.326-0.217,0.336-0.346c0.041-0.495,0.013-0.995,0.019-1.493
	c0.037-3.296,1.388-5.872,4.225-7.602c1.038-0.632,2.105-1.225,3.196-1.759c1.084-0.53,2.043-1.272,3.158-1.752
	c0.775-0.334,1.502-0.785,2.237-1.208c0.865-0.497,1.335-1.251,1.35-2.26c0.013-0.885,0.023-1.771-0.005-2.656
	c-0.008-0.257-0.094-0.549-0.239-0.758c-1.323-1.91-2.339-3.963-2.98-6.2c-0.053-0.185-0.156-0.38-0.292-0.512
	c-0.834-0.805-1.197-1.79-1.19-2.934c0.007-1.144-0.04-2.29,0.019-3.431c0.03-0.594,0.09-1.272,0.395-1.746
	c0.499-0.775,0.546-1.565,0.518-2.414c-0.017-0.516-0.003-1.033-0.003-1.55c0-1.58,0.006-1.596-1.48-2.179
	c-2.137-0.838-4.344-0.918-6.584-0.536c-3.641,0.622-6.114,3.553-6.111,7.241c0.001,1.255-0.008,2.51,0.009,3.764
	c0.005,0.356-0.07,0.628-0.358,0.866c-0.42,0.347-0.601,0.805-0.583,1.368c0.029,0.922,0.021,1.845,0.003,2.768
	c-0.012,0.627,0.233,1.093,0.729,1.467c0.16,0.121,0.313,0.32,0.36,0.511c0.556,2.231,1.76,4.074,3.328,5.715
	c0.144,0.151,0.237,0.41,0.243,0.622c0.025,0.959,0.012,1.919,0.01,2.878c-0.003,1.525-0.648,2.691-1.944,3.502
	c-2.219,1.389-4.439,2.776-6.648,4.183c-0.401,0.255-0.782,0.56-1.117,0.897C2.056,48.526,1.86,50.453,2.034,52.488z"/>
</svg>
