<?xml version="1.0" encoding="utf-8"?>
<!-- Generator: Adobe Illustrator 16.0.3, SVG Export Plug-In . SVG Version: 6.00 Build 0)  -->
<!DOCTYPE svg PUBLIC "-//W3C//DTD SVG 1.1//EN" "http://www.w3.org/Graphics/SVG/1.1/DTD/svg11.dtd">
<svg version="1.1" fill="#233240" id="Capa_1" xmlns="http://www.w3.org/2000/svg" xmlns:xlink="http://www.w3.org/1999/xlink" x="0px" y="0px"
	 width="56.69px" height="56.69px" viewBox="0 0 56.69 56.69" enable-background="new 0 0 56.69 56.69" xml:space="preserve">
<path fill-rule="evenodd" clip-rule="evenodd" d="M28.335,56.8c-0.664-0.267-0.753-0.813-0.752-1.443
	c0.007-9.19,0.005-18.381,0.005-27.571c0-0.236,0-0.472,0-0.729c-2.071-0.401-3.682-1.44-4.767-3.208
	c-0.879-1.433-1.157-3.004-0.856-4.663c0.582-3.215,3.549-5.596,6.783-5.456c3.513,0.152,6.184,2.693,6.486,6.22
	c0.264,3.096-1.87,6.378-5.713,7.102c0,0.213,0,0.444,0,0.675c0,9.209-0.002,18.418,0.005,27.626c0,0.628-0.083,1.179-0.749,1.445
	C28.629,56.8,28.482,56.8,28.335,56.8z M33.324,20.421c0.002-2.624-2.13-4.769-4.752-4.78c-2.634-0.011-4.81,2.17-4.789,4.801
	c0.021,2.622,2.184,4.774,4.783,4.758C31.188,25.183,33.321,23.041,33.324,20.421z"/>
<path fill-rule="evenodd" clip-rule="evenodd" d="M47.754,0.31c0.254,0.208,0.533,0.391,0.76,0.626
	c4.084,4.247,6.664,9.276,7.467,15.107c1.246,9.059-1.279,16.968-7.607,23.62c-0.513,0.539-1.002,0.61-1.454,0.247
	c-0.488-0.392-0.459-0.954,0.038-1.543c0.971-1.15,2.018-2.251,2.87-3.484c3.48-5.038,4.947-10.646,4.465-16.744
	c-0.488-6.167-2.923-11.472-7.209-15.931c-0.74-0.77-0.704-1.248,0.119-1.898C47.386,0.31,47.569,0.31,47.754,0.31z"/>
<path fill-rule="evenodd" clip-rule="evenodd" d="M9.909,0.31c0.819,0.654,0.855,1.129,0.113,1.898
	c-3.856,3.999-6.255,8.743-7.016,14.236c-1.053,7.6,0.866,14.417,5.737,20.374c0.43,0.526,0.91,1.011,1.367,1.514
	c0.533,0.586,0.576,1.135,0.12,1.546c-0.445,0.402-0.967,0.331-1.499-0.216c-3.729-3.836-6.259-8.349-7.291-13.598
	C-0.438,16.5,1.952,8.096,8.597,0.934C8.818,0.696,9.103,0.516,9.357,0.31C9.542,0.31,9.725,0.31,9.909,0.31z"/>
<path fill-rule="evenodd" clip-rule="evenodd" d="M6.55,19.934C6.647,14.315,8.674,9.166,12.786,4.86
	c0.372-0.39,0.776-0.637,1.314-0.36c0.577,0.297,0.662,0.979,0.198,1.545c-0.744,0.909-1.554,1.771-2.233,2.726
	c-1.806,2.541-2.907,5.379-3.364,8.463c-0.622,4.196,0.025,8.197,1.895,11.996c0.815,1.657,1.853,3.169,3.119,4.52
	c0.214,0.228,0.427,0.457,0.621,0.702c0.365,0.461,0.353,0.986-0.014,1.343c-0.383,0.372-0.969,0.383-1.376-0.063
	c-0.766-0.842-1.549-1.68-2.214-2.599C8.002,29.365,6.579,24.902,6.55,19.934z"/>
<path fill-rule="evenodd" clip-rule="evenodd" d="M50.55,21.067c-0.096,5.052-2.097,10.157-6.146,14.435
	c-0.102,0.106-0.2,0.218-0.313,0.31c-0.42,0.341-0.944,0.33-1.302-0.019c-0.337-0.328-0.38-0.84-0.076-1.254
	c0.195-0.266,0.428-0.505,0.648-0.75c4.035-4.487,5.748-9.756,5.149-15.737c-0.432-4.311-2.148-8.093-5.073-11.31
	c-0.21-0.231-0.426-0.458-0.624-0.699c-0.415-0.505-0.403-1.054,0.017-1.421c0.403-0.353,0.967-0.341,1.372,0.13
	c0.91,1.056,1.871,2.087,2.642,3.242C49.313,11.692,50.545,15.792,50.55,21.067z"/>
<path fill-rule="evenodd" clip-rule="evenodd" d="M12.294,20.22c0.051-4.383,1.578-8.167,4.604-11.341
	c0.471-0.494,1.039-0.564,1.456-0.184c0.418,0.381,0.427,0.964-0.046,1.464c-1.538,1.625-2.734,3.46-3.383,5.606
	c-1.534,5.072-0.62,9.677,2.734,13.788c0.232,0.284,0.5,0.539,0.729,0.825c0.381,0.473,0.357,1.026-0.04,1.381
	c-0.393,0.351-1.003,0.349-1.37-0.124c-0.964-1.243-1.997-2.458-2.779-3.813C12.866,25.517,12.291,22.852,12.294,20.22z"/>
<path fill-rule="evenodd" clip-rule="evenodd" d="M44.811,20.2c-0.035,4.404-1.575,8.201-4.616,11.388
	c-0.463,0.486-1.047,0.54-1.457,0.147c-0.406-0.391-0.398-0.956,0.082-1.465c1.521-1.613,2.707-3.433,3.356-5.56
	c1.554-5.092,0.632-9.71-2.737-13.836c-0.232-0.284-0.501-0.539-0.729-0.826c-0.378-0.476-0.339-1.027,0.073-1.375
	c0.405-0.342,0.993-0.326,1.367,0.157c0.963,1.245,1.999,2.457,2.774,3.815C44.248,14.963,44.816,17.523,44.811,20.2z"/>
</svg>
