<?xml version="1.0" encoding="utf-8"?>
<!-- Generator: Adobe Illustrator 16.0.3, SVG Export Plug-In . SVG Version: 6.00 Build 0)  -->
<!DOCTYPE svg PUBLIC "-//W3C//DTD SVG 1.1//EN" "http://www.w3.org/Graphics/SVG/1.1/DTD/svg11.dtd">
<svg version="1.1" fill="#233240" id="Capa_1" xmlns="http://www.w3.org/2000/svg" xmlns:xlink="http://www.w3.org/1999/xlink" x="0px" y="0px"
	 width="56.69px" height="56.69px" viewBox="0 0 56.69 56.69" enable-background="new 0 0 56.69 56.69" xml:space="preserve">
<path fill-rule="evenodd" clip-rule="evenodd" d="M0.111,30.117c0-1.145,0-2.289,0-3.433c0.036-0.197,0.082-0.393,0.108-0.592
	c0.126-0.949,0.199-1.908,0.379-2.846c0.924-4.815,2.925-9.135,6.087-12.89c4.317-5.126,9.752-8.402,16.346-9.69
	c1.314-0.257,2.657-0.374,3.986-0.555c0.997,0,1.993,0,2.989,0c0.546,0.068,1.092,0.143,1.639,0.205
	c4.876,0.552,9.311,2.247,13.298,5.113c2.567,1.846,4.777,4.049,6.605,6.627c2.487,3.508,4.127,7.376,4.828,11.628
	c0.164,0.997,0.284,2,0.425,3c0,1.144,0,2.288,0,3.433c-0.045,0.398-0.091,0.796-0.136,1.194c-0.678,6.1-3.008,11.48-7.119,16.042
	c-4.364,4.844-9.772,7.868-16.207,9.007c-1.066,0.188-2.147,0.296-3.222,0.44c-1.107,0-2.215,0-3.322,0
	c-0.143-0.031-0.284-0.081-0.427-0.091c-4.434-0.313-8.582-1.581-12.367-3.9c-7.343-4.5-11.862-10.988-13.449-19.477
	C0.354,32.27,0.256,31.189,0.111,30.117z M12.431,7.469c-0.082,0.052-0.181,0.102-0.264,0.17C4.754,13.732,1.329,21.572,2.159,31.13
	c0.534,6.146,3.081,11.482,7.454,15.841c6.272,6.25,13.875,8.835,22.653,7.636c6.549-0.895,12.037-3.937,16.273-9
	c5.987-7.154,7.778-15.349,5.34-24.348c-1.689-6.235-5.387-11.123-10.727-14.758c-0.184-0.125-0.488-0.229-0.679-0.167
	c-3.211,1.054-5.939,2.815-8.07,5.48c-0.526,0.658-0.805,1.235-0.61,2.133c0.316,1.458-0.643,2.478-2.138,2.449
	c-0.472-0.009-0.942-0.085-1.401-0.13c-0.049-0.725-0.054-1.389-0.146-2.041c-0.113-0.805-0.438-0.982-1.238-0.787
	c-0.783,0.19-1.567,0.376-2.352,0.56c-0.192,0.045-0.388,0.076-0.608,0.119c0,0.211-0.023,0.397,0.004,0.576
	c0.094,0.616,0.698,1.004,1.149,0.675c0.58-0.423,0.888-0.074,1.155,0.317c0.189,0.279,0.389,0.362,0.706,0.401
	c1.215,0.152,1.625,0.703,1.53,1.889c-0.014,0.173,0.149,0.469,0.3,0.527c0.893,0.344,1.441,0.959,1.751,1.86
	c0.285,0.832,0.785,1.025,1.483,0.545c1.139-0.782,2.252-0.699,3.448-0.154c0.815,0.372,1.673,0.674,2.538,0.908
	c0.652,0.176,1.231,0.42,1.614,0.976c0.804,1.167,1.583,2.352,2.361,3.537c0.547,0.833,1.05,1.702,1.955,2.214
	c1.066,0.604,1.458,1.554,1.428,2.732c-0.057,2.21-0.996,4.173-1.74,6.189c-0.048,0.131-0.158,0.257-0.271,0.344
	c-1.466,1.114-2.459,2.63-3.517,4.097c-2.104,2.921-4.854,5.013-8.201,6.33c-0.903,0.355-1.74,0.256-2.493-0.352
	c-0.891-0.718-1.093-1.864-0.592-2.952c0.67-1.453,1.383-2.893,1.945-4.387c0.599-1.593,0.511-2.965-0.938-4.32
	c-2.819-2.636-3.837-5.916-2.521-9.711c0.137-0.394,0.03-0.698-0.32-0.896c-0.688-0.389-0.989-1.016-1.123-1.751
	c-0.085-0.472-0.169-0.944-0.229-1.419c-0.109-0.881-0.534-1.476-1.44-1.656c-0.831-0.165-1.656-0.378-2.495-0.477
	c-2.482-0.293-4.491-1.42-5.967-3.414c-0.831-1.122-1.61-2.301-2.258-3.535C14.192,11.34,13.344,9.398,12.431,7.469z M28.453,17.924
	c-0.4,0.04-0.81,0.032-1.192,0.13c-0.502,0.129-0.788-0.051-1.015-0.477c-0.076-0.142-0.266-0.222-0.399-0.335
	c-0.469-0.4-1.044-0.727-1.385-1.217c-1.149-1.655-0.292-3.577,1.658-3.874c0.562-0.085,1.137-0.162,1.672-0.345
	c1.86-0.636,2.72-0.426,3.935,1.051c0.064-0.25,0.104-0.5,0.196-0.729c0.096-0.237,0.22-0.47,0.373-0.674
	c2.032-2.699,4.491-4.874,7.654-6.173c0.194-0.08,0.378-0.184,0.603-0.293c-3.517-1.964-9.279-3.596-15.537-2.76
	c-3.962,0.53-7.623,1.874-10.992,4.081c1.343,2.913,2.481,5.857,4.285,8.471c1.338,1.938,3.009,3.305,5.467,3.524
	c0.893,0.08,1.776,0.313,2.652,0.529c1.53,0.377,2.455,1.346,2.713,2.92c0.063,0.381,0.148,0.76,0.195,1.143
	c0.06,0.491,0.205,0.875,0.653,1.196c0.882,0.631,1.161,1.662,0.854,2.711c-0.062,0.212-0.125,0.424-0.191,0.634
	c-0.59,1.872-0.362,3.681,0.663,5.311c0.629,0.999,1.487,1.86,2.291,2.74c0.566,0.621,1.032,1.297,1.049,2.134
	c0.018,0.909-0.019,1.843-0.209,2.729c-0.394,1.834-1.277,3.483-2.145,5.133c-0.105,0.199-0.112,0.557,0.002,0.729
	c0.083,0.123,0.479,0.146,0.678,0.067c2.828-1.105,5.18-2.851,7.02-5.28c0.935-1.233,1.78-2.567,2.884-3.629
	c0.913-0.88,1.431-1.872,1.809-3.01c0.023-0.069,0.053-0.138,0.069-0.21c0.229-0.983,0.507-1.959,0.654-2.955
	c0.051-0.341-0.113-0.914-0.369-1.068c-1.411-0.85-2.213-2.183-3.045-3.516c-0.575-0.921-1.198-1.813-1.818-2.704
	c-0.106-0.153-0.294-0.281-0.472-0.347c-1.118-0.414-2.248-0.796-3.365-1.213c-0.449-0.167-0.833-0.143-1.261,0.095
	c-0.443,0.246-0.929,0.488-1.42,0.559c-1.212,0.175-2.339-0.518-2.805-1.696c-0.224-0.567-0.512-0.964-1.118-1.171
	c-0.563-0.192-0.937-0.647-1.097-1.235C28.567,18.602,28.525,18.292,28.453,17.924z"/>
</svg>
